<svg xmlns:xlink="http://www.w3.org/1999/xlink" xmlns="http://www.w3.org/2000/svg" width="70" height="32" viewBox="0 0 70 32" fill="none">
<path d="M34.5291 29.3045C34.5012 29.3402 34.4811 29.3637 34.4644 29.3883C34.1081 29.9081 33.6533 30.3526 33.1258 30.6965C32.2888 31.2419 31.353 31.6172 30.3716 31.8011C29.7017 31.9428 29.0182 32.0092 28.3336 31.999C28.0994 31.999 27.8651 31.999 27.6308 31.9912C26.9786 31.9612 26.3314 31.8623 25.6999 31.696C24.8372 31.4796 24.0214 31.1067 23.2926 30.5958C22.5502 30.0759 21.9508 29.3763 21.5503 28.5621C21.2095 27.8476 21.0197 27.0704 20.9925 26.279C20.9691 25.833 20.9908 25.3857 21.0572 24.944C21.1745 24.0975 21.5438 23.3061 22.1169 22.6733C22.5336 22.2278 23.021 21.8546 23.5593 21.5686C24.2237 21.2135 24.9217 20.9255 25.643 20.7088C26.7987 20.3432 27.9856 20.0816 29.1647 19.8233C29.979 19.6467 30.7944 19.479 31.6076 19.299C32.0355 19.2105 32.4562 19.0898 32.8659 18.9378C33.0815 18.8574 33.2849 18.7475 33.4705 18.6113C33.6341 18.4934 33.767 18.3378 33.8581 18.1576C33.9491 17.9775 33.9956 17.778 33.9937 17.576C34.0005 17.2946 33.9397 17.0156 33.8164 16.7627C33.6931 16.5097 33.511 16.2902 33.2853 16.1225C32.8508 15.781 32.3428 15.5455 31.8017 15.4349C31.2249 15.3071 30.6334 15.2593 30.0437 15.2929C29.5936 15.3053 29.1456 15.3585 28.705 15.4517C28.0296 15.5879 27.4034 15.9042 26.8924 16.3674C26.5589 16.6793 26.2776 17.0428 26.0591 17.4441C25.9754 17.5928 25.9018 17.7493 25.8226 17.9003C25.7858 17.9729 25.7444 18.0431 25.6988 18.1105C25.6555 18.1832 25.5891 18.2393 25.5102 18.2698C25.4313 18.3002 25.3445 18.3031 25.2637 18.2782C25.126 18.2374 24.9918 18.1859 24.8622 18.1239C23.9058 17.6923 22.9498 17.2592 21.9942 16.8247C21.9456 16.8012 21.8957 16.7807 21.8447 16.7632C21.7796 16.7467 21.7187 16.7168 21.6659 16.6753C21.613 16.6338 21.5695 16.5817 21.5379 16.5223C21.5064 16.4629 21.4876 16.3975 21.4828 16.3304C21.4781 16.2633 21.4873 16.1959 21.5101 16.1326C21.5707 15.9432 21.6453 15.7586 21.7332 15.5803C22.0264 14.9589 22.4124 14.3858 22.8777 13.8808C23.5044 13.2043 24.2457 12.6444 25.0674 12.2272C26.1055 11.6997 27.2241 11.3494 28.3771 11.1908C28.9596 11.1011 29.548 11.0551 30.1374 11.0533C30.52 11.0533 30.9026 11.0454 31.2841 11.0655C32.5013 11.1082 33.7019 11.3621 34.8326 11.8158C35.5513 12.1105 36.2131 12.529 36.788 13.0523C37.5378 13.7499 38.1065 14.6203 38.4445 15.5881C38.669 16.2221 38.8188 16.8803 38.8907 17.5492C38.9456 18.0556 38.9716 18.5648 38.9688 19.0742C38.9688 21.3338 38.9576 23.5923 38.9688 25.8519C38.9566 26.9404 39.107 28.0246 39.415 29.0686C39.6052 29.6722 39.8674 30.2507 40.1959 30.7915C40.2709 30.909 40.3315 31.0351 40.3766 31.1672C40.3897 31.2061 40.3951 31.2473 40.3923 31.2884C40.3895 31.3294 40.3787 31.3695 40.3605 31.4064C40.3423 31.4433 40.3169 31.4762 40.286 31.5032C40.2551 31.5303 40.2191 31.5509 40.1802 31.5641C40.1264 31.587 40.0697 31.6025 40.0118 31.6099C39.9448 31.6188 39.8774 31.6225 39.8099 31.6211H35.9425C35.8795 31.6217 35.8166 31.6188 35.7539 31.6122C35.6412 31.6024 35.5329 31.5633 35.4398 31.4988C35.3467 31.4343 35.2719 31.3466 35.2229 31.2443C34.9912 30.7753 34.8044 30.2852 34.6652 29.7808C34.6284 29.6555 34.596 29.5292 34.5603 29.4029C34.5516 29.3696 34.5412 29.3367 34.5291 29.3045ZM34.0706 22.2607C34.0093 22.2719 33.9692 22.2786 33.929 22.2864L29.2249 23.3419C28.6241 23.4612 28.0319 23.6207 27.4524 23.8193C27.0339 23.962 26.6447 24.1794 26.3034 24.461C26.0224 24.7058 25.8293 25.0363 25.7539 25.4017C25.6785 25.7671 25.725 26.1472 25.8862 26.4836C26.0979 26.9183 26.4586 27.262 26.9024 27.4518C27.428 27.6932 27.9976 27.8233 28.5757 27.8342C28.9715 27.8509 29.3681 27.8356 29.7615 27.7884C30.6046 27.6949 31.4242 27.4503 32.181 27.0661C32.6721 26.8257 33.1107 26.4902 33.4716 26.0789C33.8671 25.6371 34.0822 25.0623 34.0739 24.4689C34.0628 23.7868 34.0739 23.1048 34.0739 22.4228L34.0706 22.2607Z" fill="#C33130"/>
<path d="M61.0793 10.9824C62.0436 10.9932 63.0038 11.1094 63.9428 11.329C65.0874 11.5971 66.1615 12.1075 67.093 12.8261C68.0664 13.5962 68.8332 14.5972 69.324 15.7386C69.3762 15.8477 69.422 15.9597 69.4612 16.0741C69.4998 16.1676 69.5011 16.2725 69.4648 16.367C69.4284 16.4614 69.3573 16.5383 69.266 16.5817C69.151 16.6436 69.0313 16.6963 68.9079 16.7393C67.9181 17.112 66.9282 17.4847 65.9384 17.8574C65.8537 17.8873 65.7657 17.9065 65.6763 17.9144C65.5905 17.9252 65.5037 17.9076 65.4289 17.8641C65.3542 17.8207 65.2957 17.7539 65.2624 17.674C65.1989 17.5544 65.1431 17.4314 65.0806 17.3106C64.8876 16.9269 64.637 16.5751 64.3377 16.2675C63.8115 15.7409 63.1462 15.3759 62.4201 15.2154C61.9946 15.1174 61.5604 15.062 61.1239 15.0499C60.5886 15.0246 60.0522 15.0674 59.5277 15.1774C59.0597 15.2607 58.6187 15.4564 58.2426 15.7476C58.0937 15.8622 57.9692 16.0053 57.8761 16.1687C57.7831 16.3321 57.7233 16.5123 57.7005 16.6991C57.6722 16.8758 57.6864 17.0567 57.7419 17.2269C57.7974 17.397 57.8925 17.5514 58.0194 17.6774C58.2894 17.9313 58.6062 18.1299 58.9521 18.2621C59.5093 18.4944 60.0827 18.6857 60.6677 18.8346C61.5333 19.066 62.4012 19.2885 63.2691 19.5132C64.2274 19.7481 65.1696 20.0442 66.0902 20.3998C66.8046 20.6745 67.4797 21.0426 68.098 21.4944C68.5915 21.8545 69.0071 22.311 69.32 22.8363C69.6328 23.3616 69.8365 23.945 69.9186 24.5512C69.988 25.0567 70.0096 25.5677 69.9832 26.0773C69.9558 26.879 69.746 27.6637 69.3697 28.3716C68.9739 29.1054 68.418 29.7402 67.7433 30.2287C66.9592 30.794 66.0799 31.2133 65.1475 31.4664C64.5448 31.6367 63.9293 31.7575 63.307 31.8275C62.8284 31.8834 62.3487 31.908 61.8669 31.9203C61.3 31.9326 60.733 31.9155 60.1679 31.8689C59.2876 31.8059 58.4178 31.6389 57.5766 31.3714C56.5417 31.044 55.588 30.4998 54.7789 29.7748C54.2826 29.3206 53.8463 28.8047 53.4805 28.2397C53.1253 27.6847 52.8178 27.1004 52.5614 26.4933C52.5219 26.4153 52.4992 26.3298 52.4949 26.2425C52.4906 26.1551 52.5047 26.0678 52.5362 25.9863C52.5678 25.9048 52.6161 25.8308 52.6781 25.7692C52.7401 25.7077 52.8144 25.6599 52.896 25.629C53.2072 25.4747 53.5217 25.3305 53.8363 25.1818L55.1203 24.5769L55.7896 24.2583C55.8795 24.2148 55.9788 24.1948 56.0785 24.2001C56.1371 24.2006 56.1948 24.2156 56.2464 24.2437C56.2979 24.2717 56.3418 24.3121 56.3741 24.3611C56.4117 24.4174 56.4427 24.4778 56.4667 24.5411C56.6863 25.1013 56.994 25.6225 57.3781 26.0852C57.9149 26.7182 58.6069 27.2002 59.386 27.4839C59.9104 27.6784 60.4593 27.7988 61.0168 27.8416C61.2391 27.8663 61.4625 27.8797 61.6862 27.8819C62.5702 27.9111 63.4509 27.759 64.2741 27.4347C64.6095 27.2961 64.9051 27.0759 65.1342 26.794C65.2945 26.6 65.4042 26.3691 65.4536 26.1221C65.5031 25.875 65.4907 25.6196 65.4175 25.3786C65.327 25.1054 65.1495 24.8697 64.9122 24.7077C64.6322 24.5016 64.3256 24.3346 64.0008 24.2113C63.4383 23.992 62.8627 23.8083 62.2773 23.6612C61.2544 23.3884 60.2293 23.1279 59.2097 22.8439C58.2839 22.5912 57.3791 22.2668 56.5035 21.8734C55.8209 21.5759 55.1827 21.1849 54.6072 20.7118C53.8067 20.0565 53.2705 19.1325 53.0979 18.1112C53.0272 17.6786 53.0033 17.2396 53.0265 16.8019C53.0455 16.3144 53.1296 15.8315 53.2764 15.3663C53.5044 14.6354 53.8893 13.9633 54.4041 13.3974C55.1801 12.5655 56.1538 11.9443 57.2342 11.5918C58.0131 11.3193 58.8229 11.1451 59.6448 11.073C60.1267 11.0361 60.6041 11.0148 61.0793 10.9824Z" fill="#C33130"/>
<path d="M46.2472 11.5916H51.3662C51.4379 11.5893 51.5096 11.5938 51.5804 11.605C51.6833 11.6248 51.7772 11.677 51.8484 11.754C51.9196 11.831 51.9645 11.9289 51.9764 12.0332C51.9841 12.0959 51.9871 12.159 51.9853 12.2222C51.9853 13.2113 51.9853 14.2007 51.9853 15.1906C51.9853 15.6501 51.8024 15.8346 51.3472 15.8346C50.08 15.8346 48.8139 15.8346 47.5478 15.8346C47.3716 15.8307 47.1964 15.8635 47.0334 15.9308C46.8704 15.9982 46.7231 16.0987 46.6008 16.2259C46.3847 16.4543 46.2587 16.7534 46.246 17.0678C46.246 17.0902 46.246 17.1137 46.246 17.136C46.246 19.7747 46.246 22.4136 46.246 25.053C46.2407 25.493 46.3474 25.9271 46.5562 26.3142C46.6868 26.558 46.8714 26.7686 47.0959 26.9297C47.3205 27.0908 47.5789 27.198 47.8513 27.2433C48.2915 27.3195 48.7424 27.3066 49.1776 27.2053C49.6582 27.1045 50.1273 26.9547 50.5775 26.7581C50.692 26.7056 50.8179 26.6833 50.9434 26.6932C51.0019 26.699 51.0582 26.7181 51.1081 26.7491C51.158 26.7801 51.2001 26.8222 51.2312 26.8721C51.273 26.9365 51.3103 27.0038 51.3428 27.0734L52.7639 29.9211C52.8158 30.011 52.8424 30.1134 52.8409 30.2173C52.8362 30.3037 52.8067 30.3868 52.7558 30.4567C52.7049 30.5265 52.6349 30.5801 52.5542 30.6109C51.7728 30.9717 50.9594 31.2584 50.1246 31.4673C49.6572 31.5831 49.1806 31.6579 48.7002 31.691C48.3454 31.7111 47.9896 31.7357 47.6348 31.7278C46.6694 31.7246 45.7125 31.5462 44.8104 31.2012C44.2301 30.9731 43.6944 30.6446 43.2275 30.2307C42.7687 29.8201 42.3904 29.3271 42.112 28.7773C41.7126 27.9804 41.477 27.1113 41.4193 26.2214C41.3892 25.8491 41.378 25.4745 41.378 25.1033C41.378 19.1798 41.378 13.2541 41.378 7.32617C41.3773 7.25121 41.3837 7.17634 41.397 7.10256C41.4128 6.99645 41.4638 6.89875 41.5417 6.82515C41.6195 6.75154 41.7198 6.7063 41.8265 6.6967C41.889 6.68921 41.952 6.68585 42.015 6.68664C43.2138 6.68664 44.4129 6.68664 45.6124 6.68664C45.6977 6.68557 45.7827 6.69497 45.8657 6.7146C45.9609 6.7369 46.0468 6.78841 46.1114 6.86196C46.176 6.93552 46.216 7.02746 46.226 7.12493C46.2373 7.20528 46.2426 7.28639 46.2416 7.36754C46.2416 8.71369 46.2416 10.0602 46.2416 11.4071L46.2472 11.5916Z" fill="#C33130"/>
<path d="M27.3589 0.00991445C27.2162 0.368812 27.0812 0.70311 26.9484 1.03853C26.9333 1.08605 26.9023 1.12689 26.8607 1.15418C26.819 1.18147 26.7693 1.19354 26.7198 1.18835C26.4175 1.18835 26.1151 1.18835 25.814 1.18835H22.6482V3.00296C22.6984 3.00296 22.7508 3.00967 22.8032 3.00967H25.9534C26.0248 3.00967 26.0951 3.01973 26.1765 3.02644C26.1609 3.08011 26.1531 3.11812 26.1386 3.1539C26.027 3.43341 25.9032 3.71294 25.7917 3.99133C25.7745 4.04751 25.7384 4.096 25.6896 4.1286C25.6408 4.1612 25.5823 4.17591 25.524 4.17023C24.8346 4.16575 24.1448 4.16575 23.4547 4.17023C23.3196 4.17034 23.1851 4.18723 23.0542 4.22054C22.9332 4.23778 22.8232 4.3005 22.7465 4.396C22.6699 4.4915 22.6323 4.61262 22.6415 4.73483C22.6281 5.16305 22.6415 5.59351 22.6415 6.02172C22.6446 6.03871 22.6499 6.05524 22.6571 6.07092H27.3422C27.3362 6.10865 27.328 6.14597 27.3177 6.18272C27.1983 6.4846 27.0756 6.78537 26.9585 7.08836C26.9417 7.14222 26.9066 7.18846 26.8593 7.2191C26.8121 7.24973 26.7556 7.26282 26.6997 7.25607C25.0041 7.25607 23.3086 7.25607 21.6141 7.25607C21.2181 7.25607 21.1311 7.11408 21.0943 6.74847C21.0923 6.71683 21.0923 6.68508 21.0943 6.65343C21.0943 4.65583 21.0943 2.65897 21.0943 0.662861C21.0943 0.568213 21.101 0.473695 21.1144 0.380002C21.1192 0.314063 21.1427 0.250884 21.1823 0.19797C21.2218 0.145055 21.2757 0.104629 21.3375 0.0814822C21.4501 0.0373959 21.5692 0.0120897 21.69 0.00657064C23.5328 0.00657064 25.3778 0.00657064 27.2206 0.00657064C27.2608 0.0020984 27.2998 0.00767833 27.3589 0.00991445Z" fill="#C33130"/>
<path d="M3.10234 0.0240192V0.180547C3.10234 1.59378 3.10234 3.00812 3.10234 4.42358C3.10314 4.68108 3.14418 4.93687 3.22394 5.18164C3.29025 5.39888 3.41129 5.59532 3.57543 5.752C3.73956 5.90867 3.94124 6.0203 4.16096 6.07609C4.5308 6.17761 4.91519 6.21541 5.29767 6.18789C5.48205 6.17824 5.66546 6.15508 5.84647 6.11857C6.14919 6.07602 6.42901 5.93312 6.64129 5.71266C6.85356 5.49219 6.9861 5.20686 7.01776 4.90212C7.05417 4.68034 7.07319 4.45604 7.07465 4.23128C7.07465 2.92091 7.07465 1.61055 7.07465 0.301299C7.07465 0.269994 7.07465 0.238698 7.07465 0.206274C7.07465 0.0765788 7.13598 0.0173091 7.26426 0.0117188H8.63413C8.63413 0.0698579 8.6408 0.113468 8.6408 0.157072C8.6408 1.61055 8.64861 3.07633 8.6408 4.5354C8.65181 5.12245 8.48579 5.69916 8.16448 6.19012C7.90829 6.56491 7.54963 6.85763 7.13153 7.03314C6.67176 7.22908 6.18055 7.34043 5.68139 7.36185C5.42557 7.37601 5.16938 7.3816 4.91282 7.37862C4.36705 7.38034 3.82482 7.29039 3.3087 7.11252C2.71926 6.92148 2.22463 6.51247 1.92549 5.96875C1.7601 5.66185 1.65519 5.32591 1.61649 4.97927C1.58675 4.73774 1.57035 4.49475 1.5674 4.25141C1.5674 2.94104 1.5674 1.63068 1.5674 0.32143C1.5674 0.28118 1.5674 0.239802 1.5674 0.199552C1.56706 0.174561 1.57187 0.149779 1.58149 0.126722C1.59112 0.103665 1.60534 0.0828288 1.62333 0.0655268C1.64133 0.0482247 1.66269 0.0348138 1.68607 0.0261347C1.70946 0.0174555 1.73437 0.0136972 1.75926 0.0150796C2.19208 0.0150796 2.62381 0.0150796 3.05662 0.0150796C3.07211 0.0166004 3.08741 0.0195905 3.10234 0.0240192Z" fill="#C33130"/>
<path d="M19.8139 21.4389C19.8028 21.0923 19.786 20.7457 19.7637 20.3991C19.7245 19.8593 19.65 19.3226 19.5406 18.7925C19.3514 17.8075 19.0321 16.8521 18.5913 15.9515C18.1033 14.9514 17.4316 14.0524 16.6113 13.3017C15.9446 12.6997 15.1856 12.2089 14.3635 11.8482C13.1948 11.3432 11.9421 11.0619 10.6701 11.0186C10.1441 10.9946 9.61708 11.0073 9.09283 11.0566C8.25734 11.1326 7.43365 11.3067 6.63871 11.5754C5.83526 11.8474 5.07063 12.2232 4.3642 12.6935C3.73706 13.1113 3.16219 13.6031 2.6519 14.1581C2.29944 14.539 1.97862 14.9481 1.69258 15.3813C1.29877 15.9816 0.970388 16.6226 0.713146 17.2932C0.309899 18.3481 0.0742925 19.4599 0.0148681 20.5881C-0.0157903 21.1341 -0.0124343 21.6816 0.0249106 22.2272C0.0539136 22.6409 0.0974182 23.0523 0.164348 23.4626C0.348633 24.6373 0.722751 25.774 1.27202 26.828C1.78631 27.8146 2.46974 28.7028 3.29108 29.4521C4.00297 30.0999 4.81045 30.6335 5.68494 31.0341C6.91707 31.5983 8.2478 31.9144 9.60149 31.9644C10.0321 31.9845 10.4649 31.9644 10.8977 31.9521C11.4465 31.9351 11.9934 31.8787 12.5341 31.7832C13.5949 31.6143 14.6214 31.2745 15.5739 30.777C16.4043 30.337 17.1512 29.7542 17.7804 29.0552C18.2995 28.4774 18.7378 27.8316 19.0833 27.1355C19.1216 27.0541 19.1515 26.9691 19.1725 26.8817C19.1917 26.8113 19.1895 26.7368 19.1663 26.6677C19.143 26.5986 19.0997 26.538 19.042 26.4937C18.9738 26.4369 18.8989 26.3888 18.8189 26.3506C17.9674 25.9578 17.1159 25.5672 16.2644 25.1789L15.662 24.9016C15.6043 24.868 15.5401 24.8472 15.4738 24.8404C15.4074 24.8336 15.3404 24.841 15.2771 24.8622C15.2138 24.8833 15.1557 24.9177 15.1067 24.963C15.0577 25.0084 15.0188 25.0636 14.9927 25.1252C14.9726 25.1598 14.9559 25.199 14.938 25.237C14.7632 25.584 14.5376 25.9028 14.2687 26.1829C13.7821 26.6772 13.1836 27.0466 12.5241 27.2596C11.6838 27.5353 10.8003 27.6547 9.91716 27.6118C9.36772 27.5943 8.82415 27.4929 8.30525 27.311C7.64179 27.0838 7.03817 26.7092 6.53944 26.2153C6.06889 25.7452 5.69416 25.1877 5.43619 24.574C5.34585 24.3714 5.29366 24.1538 5.28225 23.9322C5.2617 23.7482 5.30627 23.5627 5.40821 23.4082C5.51015 23.2537 5.66297 23.14 5.84 23.087C6.01188 23.0317 6.19163 23.0048 6.37212 23.0076H19.2138C19.2723 23.0091 19.3308 23.0065 19.3889 22.9998C19.5005 22.9859 19.6039 22.9338 19.6816 22.8523C19.7592 22.7708 19.8064 22.6649 19.815 22.5525C19.8229 22.4854 19.8266 22.4178 19.8262 22.3502C19.8239 22.0416 19.824 21.7419 19.8139 21.4389ZM5.06363 19.3269C5.13374 18.9977 5.23225 18.6753 5.3581 18.3632C5.58092 17.7946 5.904 17.2708 6.31187 16.8169C6.66982 16.4214 7.09325 16.0908 7.56347 15.8397C8.24959 15.474 9.00728 15.2633 9.78331 15.2225C10.5258 15.1686 11.2719 15.2462 11.9876 15.4517C12.5739 15.6206 13.11 15.9308 13.5493 16.3551C13.9145 16.7187 14.2039 17.1517 14.4004 17.6286C14.6107 18.1375 14.7543 18.6715 14.8276 19.2174C14.8276 19.252 14.8276 19.2889 14.8343 19.3213C14.7306 19.3504 5.21869 19.3582 5.06363 19.3269Z" fill="#C33130"/>
<path d="M18.2925 4.55124C18.2231 4.2592 18.0713 3.99335 17.8553 3.78537C17.6786 3.62621 17.4668 3.51128 17.2373 3.44997L17.2897 3.4086C17.4584 3.29201 17.6023 3.14304 17.7132 2.97032C17.8241 2.7976 17.8996 2.60453 17.9356 2.40233C17.983 2.16736 17.9991 1.92713 17.9835 1.6879C17.9906 1.36417 17.8936 1.04674 17.7068 0.782566C17.5199 0.518392 17.2532 0.321508 16.9461 0.221011C16.5423 0.0773881 16.1163 0.00623059 15.6878 0.0108113C14.5076 0.00186678 13.3263 0.0108113 12.1461 0.0108113C12.0381 0.0128611 11.9309 0.0290222 11.8271 0.058887C11.7476 0.0789924 11.6766 0.123987 11.6245 0.187334C11.5723 0.25068 11.5417 0.329073 11.5371 0.411079C11.5345 0.451662 11.5345 0.492357 11.5371 0.53294C11.5371 2.60657 11.5371 4.67983 11.5371 6.75271C11.5355 6.81571 11.5407 6.87868 11.5527 6.94055C11.5657 7.02168 11.606 7.09591 11.6669 7.151C11.7277 7.20609 11.8055 7.23873 11.8873 7.24354C11.9717 7.25447 12.0566 7.26081 12.1416 7.26254C12.8723 7.26254 13.6029 7.26254 14.3325 7.26254C14.9862 7.26254 15.6387 7.26254 16.2913 7.24354C16.6754 7.23543 17.0534 7.14549 17.4001 6.97968C17.6069 6.88774 17.7917 6.7526 17.9421 6.5833C18.0925 6.41401 18.2052 6.21446 18.2725 5.99802C18.4172 5.52763 18.4241 5.02549 18.2925 4.55124ZM13.0664 1.19706C13.1155 1.19706 13.1601 1.19036 13.2036 1.19036C13.97 1.19036 14.7341 1.19036 15.5004 1.19036C15.6486 1.19224 15.7959 1.21291 15.9388 1.25186C16.0627 1.28125 16.1748 1.34729 16.2608 1.4414C16.3467 1.5355 16.4024 1.65333 16.4207 1.77958C16.4671 2.00492 16.4671 2.23737 16.4207 2.46271C16.3989 2.60006 16.3339 2.72684 16.2352 2.82457C16.1365 2.92231 16.0092 2.98592 15.8719 3.0061C15.7221 3.03725 15.5697 3.05409 15.4168 3.05641C14.6694 3.05641 13.9209 3.05641 13.1735 3.05641C13.1423 3.05641 13.1121 3.05641 13.062 3.0497L13.0664 1.19706ZM16.7654 5.4837C16.7433 5.60216 16.6892 5.71228 16.609 5.802C16.5287 5.89171 16.4254 5.95758 16.3103 5.99242C16.1164 6.05226 15.9141 6.08021 15.7113 6.07517C14.8635 6.07517 14.0168 6.07517 13.169 6.07517C13.1378 6.07517 13.1077 6.07516 13.0575 6.06734V5.66149C13.0575 5.39986 13.0575 5.13712 13.0575 4.87885C13.0581 4.78002 13.066 4.68136 13.0809 4.58367C13.0911 4.49728 13.1269 4.41593 13.1835 4.35C13.2402 4.28407 13.3151 4.23658 13.3988 4.2136C13.5433 4.16689 13.6934 4.14018 13.845 4.13422C14.5076 4.12639 15.1702 4.12751 15.8328 4.13422C15.9723 4.13865 16.1109 4.15927 16.2456 4.19571C16.3883 4.22606 16.5173 4.30176 16.6136 4.41155C16.7099 4.52134 16.7682 4.65935 16.7799 4.80505C16.8159 5.02921 16.8107 5.25811 16.7643 5.48036L16.7654 5.4837Z" fill="#C33130"/>
<path d="M36.7796 7.05334L36.7596 7.01756L36.3948 6.40039L35.2447 4.45496C35.228 4.42589 35.218 4.39347 35.2012 4.35657L35.3407 4.31297C35.626 4.23767 35.8857 4.08658 36.0925 3.87563C36.2992 3.66467 36.4453 3.40168 36.5153 3.11442C36.6606 2.58115 36.6699 2.0198 36.5421 1.48204C36.4782 1.18427 36.3355 0.909227 36.129 0.685754C35.9225 0.46228 35.6599 0.298613 35.3686 0.211923C34.9495 0.0710463 34.5099 0.000786061 34.0679 0.00397533C32.8955 -0.00496916 31.7253 0.00397533 30.5518 0.00397533C30.4484 0.00538464 30.3456 0.0204136 30.2462 0.0486902C30.1592 0.0673615 30.0811 0.114986 30.0246 0.183807C29.9681 0.252629 29.9365 0.338599 29.9349 0.427718C29.9328 0.468313 29.9328 0.508984 29.9349 0.549579C29.9349 2.68656 29.9349 4.82356 29.9349 6.96055C29.9318 7.00559 29.9318 7.05077 29.9349 7.09582C29.9379 7.13229 29.9527 7.1668 29.9771 7.19405C30.0015 7.2213 30.0341 7.23981 30.0699 7.24677C30.1066 7.25431 30.1441 7.25731 30.1815 7.2557H31.3438C31.3784 7.2557 31.4141 7.2557 31.4677 7.24787V7.08464C31.4677 6.47418 31.4677 5.86485 31.4677 5.25438C31.4671 5.17297 31.4712 5.09159 31.4799 5.01065C31.4868 4.92008 31.5195 4.83339 31.5741 4.76087C31.6286 4.68834 31.7028 4.63302 31.7878 4.60144C31.9439 4.54135 32.1103 4.51283 32.2775 4.51757C32.7058 4.51757 33.1342 4.51757 33.5614 4.51757C33.6006 4.5135 33.6401 4.52218 33.6741 4.54231C33.708 4.56244 33.7346 4.59296 33.7499 4.62938C34.2039 5.4601 34.6635 6.28747 35.1176 7.11931C35.1378 7.16446 35.1715 7.20217 35.2141 7.22721C35.2567 7.25226 35.306 7.2634 35.3552 7.25907C35.7924 7.25907 36.2297 7.25907 36.6659 7.25907C36.822 7.25571 36.8544 7.19757 36.7796 7.05334ZM35.0484 2.74098C35.0277 2.87854 34.9648 3.00624 34.8685 3.1064C34.7722 3.20655 34.6471 3.27421 34.5107 3.30001C34.313 3.34204 34.1116 3.36413 33.9095 3.36597C33.1386 3.37268 32.3679 3.36597 31.5982 3.36597C31.5591 3.36597 31.5201 3.36598 31.4677 3.35816V1.19359C31.5046 1.18817 31.5418 1.18481 31.5792 1.18352C32.4121 1.18352 33.2454 1.18352 34.0791 1.18352C34.2592 1.18262 34.4382 1.21326 34.6078 1.27408C34.7065 1.30706 34.7957 1.36357 34.8678 1.43874C34.9398 1.51392 34.9927 1.60551 35.0216 1.70565C35.0532 1.8093 35.073 1.9162 35.0807 2.0243C35.1048 2.26345 35.0943 2.50484 35.0495 2.74098H35.0484Z" fill="#C33130"/>
</svg>