<svg xmlns:xlink="http://www.w3.org/1999/xlink" xmlns="http://www.w3.org/2000/svg" width="24" height="24" viewBox="0 0 24 24" fill="none">
<path d="M22.286 0H1.709C1.25321 0.00339672 0.817365 0.18738 0.497009 0.511617C0.176653 0.835854 -0.00206979 1.27389 2.15777e-05 1.72968V22.2696C-0.00225938 22.7255 0.176379 23.1637 0.496756 23.4881C0.817132 23.8125 1.25309 23.9966 1.709 24H22.286C22.7423 23.9966 23.1787 23.8127 23.4998 23.4884C23.8209 23.1641 24.0005 22.7259 23.9993 22.2696V1.72968C24.0003 1.27349 23.8206 0.835468 23.4996 0.511354C23.1785 0.187241 22.7422 0.00339499 22.286 0ZM7.25356 20.5713H3.69639V9.11743H7.25856V20.5713H7.25356ZM5.47533 7.55336C4.9283 7.55336 4.40366 7.3361 4.01678 6.94936C3.62991 6.56261 3.41247 6.03805 3.41228 5.49102C3.41228 4.94386 3.62963 4.41911 4.01653 4.03222C4.40343 3.64532 4.92818 3.42796 5.47533 3.42796C6.02166 3.43003 6.54503 3.64797 6.93135 4.03429C7.31766 4.42061 7.53561 4.94397 7.53768 5.4903C7.53805 5.76127 7.48497 6.02966 7.38147 6.28008C7.27797 6.53051 7.12608 6.75805 6.93451 6.94969C6.74294 7.14133 6.51545 7.29329 6.26506 7.39688C6.01467 7.50047 5.7463 7.55364 5.47533 7.55336ZM20.5878 20.5713H17.0306V15.0032C17.0306 13.6747 17.0035 11.9657 15.1824 11.9657C13.3264 11.9657 13.0451 13.412 13.0451 14.9068V20.5713H9.48723V9.11743H12.8995V10.6815H12.948C13.2904 10.0979 13.7845 9.61786 14.3777 9.29245C14.971 8.96704 15.6413 8.80838 16.3175 8.83331C19.9175 8.83331 20.5871 11.2062 20.5871 14.2922L20.5878 20.5713Z" fill="#C33130"/>
</svg>