<svg xmlns:xlink="http://www.w3.org/1999/xlink" xmlns="http://www.w3.org/2000/svg" width="69" height="139" viewBox="0 0 69 139" fill="none">
<g clip-path="url(#clip0_2650_87485)">
<path d="M15.3123 20.6937C14.4233 20.6005 13.7867 19.1851 13.3711 18.664C12.4715 17.4955 5.63249 10.397 7.0266 9.27789C7.5632 8.85 8.41544 8.86097 8.94152 9.28886C12.3084 12.0976 14.9493 15.5261 16.5802 19.2181C16.8695 19.8654 16.3066 20.6498 15.4544 20.6992L15.3176 20.6992" fill="#C43330"/>
<path d="M34.0136 17.2266C33.2876 17.2266 32.6879 16.7603 32.6616 16.1623C32.488 12.1742 32.2092 8.13119 31.8251 4.15402C31.762 3.54511 32.3249 3.01299 33.0667 2.9691C35.8602 2.79904 35.2973 14.6153 35.3709 16.08C35.3972 16.689 34.808 17.1991 34.0715 17.2211L34.0189 17.2211L34.0136 17.2266Z" fill="#C43330"/>
<path d="M49.8273 21.7193C47.0339 21.7193 49.7011 19.3275 50.4902 18.6911C53.4047 16.2994 56.498 14.0228 59.4914 11.6858C60.8802 10.5942 64.3629 10.8301 62.3953 12.4813C58.6917 15.6136 54.7619 18.6308 50.7269 21.4724C50.4744 21.6425 50.164 21.7302 49.8484 21.7302" fill="#C43330"/>
<path d="M34.8898 138.857C34.8898 138.857 34.9003 138.868 34.9161 138.884C40.0716 134.424 45.2325 129.953 50.388 125.499C55.3437 121.209 61.8776 117.117 65.9494 111.746C63.4716 111.159 60.9148 111.746 58.4633 111.28C55.1701 110.644 55.633 111.357 55.37 107.199C55.007 101.153 55.3437 94.905 55.3332 88.8487C55.3332 85.2336 55.3069 81.6075 55.2963 77.9979C55.2858 72.9839 55.9224 72.386 51.7769 72.0568C39.4982 71.0804 26.6672 71.5905 14.3727 72.1995C14.5253 84.131 15.6879 96.2435 14.3727 108.109C13.8835 112.569 13.1575 111.538 9.4013 111.538C7.62316 111.538 5.71876 111.423 4.01953 111.708C8.37545 113.984 11.3951 118.62 15.1882 121.884C21.7483 127.551 28.3085 133.256 34.8898 138.884L34.8898 138.857Z" stroke="#C43330" stroke-width="2.32" stroke-miterlimit="10"/>
<path d="M50.5127 58.7863C50.5127 58.7863 50.5016 58.7974 50.4961 58.8029C50.3966 58.8858 50.2585 58.8913 50.1314 58.8913C49.6673 58.8913 49.1976 58.8913 48.7335 58.8913C48.5954 58.8913 48.4462 58.8913 48.3467 58.7974C48.2307 58.6924 48.2252 58.5211 48.2252 58.3664C48.2252 54.3108 48.2252 50.2496 48.2252 46.194C48.2252 46.0503 48.2307 45.8901 48.3301 45.7907C48.4296 45.6912 48.5898 45.6857 48.7335 45.6857C49.1921 45.6857 49.6507 45.6857 50.1093 45.6857C50.2585 45.6857 50.4187 45.6912 50.5237 45.7962C50.6287 45.9012 50.6342 46.0614 50.6342 46.2051C50.6342 47.6693 50.6287 49.128 50.6232 50.5922C50.6232 50.8464 50.6508 51.1447 50.8663 51.2663C50.9768 51.3271 51.1039 51.3271 51.2309 51.3271C51.7282 51.3271 52.231 51.3271 52.7283 51.3271C52.9107 51.3271 53.1206 51.316 53.2422 51.1779C53.3472 51.0563 53.3527 50.8795 53.3527 50.7193C53.3472 49.3048 53.3416 47.8848 53.3361 46.4703C53.3361 46.1885 53.3637 45.857 53.6069 45.7188C53.7339 45.647 53.8831 45.6525 54.0268 45.658C54.4412 45.6746 54.8611 45.6912 55.2755 45.7023C55.4081 45.7023 55.5573 45.7188 55.6457 45.8183C55.7286 45.9067 55.7341 46.0393 55.7341 46.1609C55.7673 49.1059 55.806 52.0454 55.8446 54.9849C55.8557 56.2225 56.1264 58.7255 54.4522 59.0405C54.071 59.1123 53.629 58.9631 53.4411 58.6205C53.3195 58.3995 53.3195 58.1288 53.3195 57.8802C53.3306 56.4767 53.3361 55.0733 53.3472 53.6643C53.3472 53.5151 53.3416 53.3494 53.2311 53.2499C53.1317 53.1615 52.988 53.156 52.8554 53.156C52.2918 53.156 51.7227 53.156 51.1591 53.156C51.0099 53.156 50.8442 53.1615 50.7392 53.2665C50.6342 53.3715 50.6287 53.5372 50.6287 53.6864C50.6287 55.2501 50.6287 56.8082 50.6232 58.3719C50.6232 58.5211 50.6121 58.6869 50.5127 58.7918L50.5127 58.7863Z" fill="#C33130"/>
<path d="M44.003 58.8365C43.7986 58.8862 43.5776 58.9193 43.34 58.9359C42.3951 59.0077 41.4558 58.842 40.522 58.6762C40.1905 58.6154 39.8424 58.5491 39.6048 58.3115C39.323 58.0242 39.2843 57.5822 39.2678 57.1788C39.1407 53.9465 39.1352 50.7086 39.2567 47.4818C39.2733 47.0509 39.312 46.5701 39.6159 46.2663C39.8424 46.0397 40.1739 45.9513 40.4889 45.885C41.9476 45.5866 43.4615 45.5811 44.9257 45.8684C45.2683 45.9347 45.6219 46.0287 45.8651 46.2773C46.18 46.6033 46.2132 47.1006 46.2242 47.5537C46.2684 49.0013 46.3181 50.4545 46.3623 51.9021C46.4452 54.5046 46.9646 58.1568 44.0085 58.842L44.003 58.8365ZM41.5995 48.1007C41.5995 50.8357 41.5995 53.5653 41.5939 56.3003C41.5939 56.444 41.594 56.5876 41.6547 56.7147C41.7487 56.9192 41.9697 57.0352 42.1852 57.0904C44.1135 57.549 43.9367 55.0847 43.9257 53.9023C43.9091 51.9629 43.8925 50.0235 43.8759 48.0841C43.8759 47.9183 43.8649 47.736 43.7378 47.631C43.6383 47.5481 43.4947 47.5426 43.3621 47.5426C42.9366 47.5426 42.5167 47.5426 42.0912 47.5426C41.9641 47.5426 41.8205 47.5426 41.721 47.631C41.605 47.7305 41.5995 47.9073 41.5995 48.0565L41.5995 48.0896L41.5995 48.1007Z" fill="#C33130"/>
<path d="M32.1194 58.8031C32.1194 58.8031 32.1084 58.8142 32.0973 58.8197C31.9647 58.9412 31.7603 58.9302 31.5835 58.9191C30.9812 58.8749 30.379 58.8307 29.7767 58.7865C30.5944 54.6094 31.4177 50.4322 32.2355 46.255C32.2686 46.0892 32.3073 45.9069 32.4399 45.8019C32.5725 45.6969 32.7604 45.6859 32.9372 45.6859C33.5505 45.6859 34.1638 45.6859 34.7771 45.6859C34.9871 45.6859 35.2136 45.6859 35.3739 45.824C35.5231 45.9511 35.5783 46.1556 35.6225 46.3434C36.3629 49.4431 37.0591 52.5484 37.7166 55.6647C37.8713 56.394 38.0758 60.4497 36.0646 58.8197C35.5507 58.4053 35.4126 57.687 35.3076 57.0295C34.86 54.1618 34.4069 51.2941 33.9594 48.4265C33.3958 51.7527 32.8322 55.079 32.2686 58.4053C32.2465 58.5489 32.2134 58.6981 32.1139 58.8031L32.1194 58.8031Z" fill="#C33130"/>
<path d="M26.0967 47.6253C26.0083 47.5479 25.8757 47.5424 25.7597 47.5424C24.7485 47.5424 23.7319 47.5424 22.7207 47.5369C22.5439 47.5369 22.345 47.5258 22.2345 47.3877C22.1516 47.2827 22.1516 47.139 22.1571 47.0119C22.1627 46.7246 22.1682 46.4318 22.1737 46.1445C22.1737 46.0229 22.1848 45.8903 22.2621 45.8019C22.356 45.6969 22.5163 45.6914 22.6544 45.6914C24.6214 45.6969 26.5885 45.708 28.5555 45.7135C28.6052 48.7911 28.6605 51.8632 28.7102 54.9408C28.7434 57.0571 28.8815 58.9136 26.2901 58.9136C25.1132 58.9136 23.9363 58.9136 22.7594 58.9136C22.6489 58.9136 22.5218 58.9136 22.4389 58.8307C22.3616 58.7533 22.3505 58.6373 22.345 58.5268C22.3339 58.234 22.3174 57.9411 22.3063 57.6483C22.3008 57.5212 22.2953 57.383 22.356 57.2725C22.4776 57.0515 22.7815 57.0239 23.0357 57.0294C23.9253 57.035 24.8093 57.046 25.6989 57.0515C25.837 57.0515 25.9862 57.0515 26.0857 56.9521C26.1851 56.8581 26.1907 56.7034 26.1907 56.5653C26.1907 55.6536 26.1907 54.7419 26.1907 53.8302C26.1907 53.7032 26.1851 53.565 26.0967 53.4711C26.0083 53.3827 25.8702 53.3772 25.7431 53.3772C24.9916 53.3772 24.2347 53.3772 23.4832 53.3827C23.3175 53.3827 23.1241 53.3716 23.0191 53.2446C22.9362 53.1451 22.9362 53.0014 22.9362 52.8688C22.9362 52.576 22.9417 52.2831 22.9473 51.9903C22.9473 51.8687 22.9528 51.7361 23.0357 51.6422C23.1296 51.5372 23.2898 51.5262 23.4335 51.5262C24.2126 51.5262 24.9916 51.5151 25.7652 51.5096C25.8978 51.5096 26.047 51.4985 26.1299 51.3991C26.1962 51.3217 26.1962 51.2057 26.1962 51.1062C26.1962 50.0509 26.1962 48.9955 26.1962 47.9402C26.1962 47.8352 26.1962 47.7247 26.1299 47.6474C26.1188 47.6363 26.1133 47.6308 26.1022 47.6197L26.0967 47.6253Z" fill="#C33130"/>
<path d="M18.3437 50.7914C18.3658 49.2553 18.3879 47.7248 18.41 46.1888C18.41 46.0506 18.4211 45.8959 18.5205 45.7965C18.62 45.697 18.7692 45.6915 18.9073 45.6915L20.2058 45.6694C20.3439 45.6694 20.4931 45.6694 20.5925 45.7633C20.692 45.8572 20.703 46.012 20.7086 46.1501C20.7749 48.3934 20.8467 50.6367 20.913 52.8855C20.9959 55.5598 21.5595 59.2839 17.8741 59.0629C16.8684 59.0021 15.8628 58.864 14.8738 58.654C14.5533 58.5877 14.2107 58.4993 13.9897 58.2562C13.7079 57.9523 13.6914 57.4881 13.6914 57.0737C13.6914 55.8361 13.6914 54.5928 13.6914 53.3552C13.6914 52.8247 13.6914 52.2722 13.9068 51.7804C14.1223 51.2887 14.5865 50.8688 15.1169 50.8909C14.4428 49.189 13.7687 47.4817 13.0891 45.7799C13.6582 45.7412 14.2273 45.697 14.802 45.6583C15.0395 45.6418 15.2992 45.6307 15.5037 45.7578C15.7081 45.8904 15.802 46.1335 15.8849 46.3601C16.2441 47.3546 16.6032 48.3547 16.9624 49.3493C17.211 50.0399 17.6033 50.8467 18.3382 50.9074L18.3382 50.7803L18.3437 50.7914ZM17.9846 56.687C18.7084 55.8084 18.5095 53.7861 18.2664 52.8579C18.2498 52.7916 18.2277 52.7142 18.1724 52.67C18.1117 52.6203 18.0177 52.6148 17.9404 52.6148C17.4818 52.6148 17.0232 52.6148 16.5646 52.6203C16.4485 52.6203 16.3214 52.6203 16.2275 52.6976C16.0949 52.7971 16.0838 52.9905 16.0838 53.1563C16.0838 54.2226 16.0728 55.289 16.0673 56.361C16.0673 56.5323 16.0673 56.7201 16.1778 56.8472C16.2551 56.9356 16.3656 56.9853 16.4761 57.0185C17.1944 57.234 17.6752 57.0627 17.9846 56.687Z" fill="#C33130"/>
<path d="M54.2651 32.607C54.3645 32.4965 54.5358 32.491 54.6905 32.491C54.9005 32.491 55.1049 32.491 55.3149 32.4965C55.4254 32.4965 55.5469 32.5021 55.6188 32.5794C55.6906 32.6512 55.6961 32.7618 55.7016 32.8667C55.7403 34.1928 55.779 35.5134 55.8122 36.8395C55.8343 37.6296 56.1271 43.9948 54.0164 42.1383C53.6352 41.8012 53.4749 41.2819 53.3423 40.7901C52.95 39.3922 52.5632 37.9998 52.1709 36.6019C51.6571 38.3368 51.1432 40.0718 50.6349 41.8012C50.5962 41.9394 50.5465 42.083 50.4415 42.1714C50.3144 42.2764 50.1321 42.282 49.9608 42.2764C49.6293 42.2764 49.2922 42.2654 48.9607 42.2599C48.8502 42.2599 48.7231 42.2488 48.6458 42.1659C48.5795 42.0886 48.5739 41.9781 48.5739 41.8786C48.5739 38.8783 48.5739 35.8725 48.5739 32.8723C48.5739 32.7673 48.5739 32.6512 48.6458 32.5794C48.7231 32.4965 48.8557 32.4855 48.9718 32.4855C49.2204 32.4855 49.469 32.4855 49.7177 32.4855C49.8282 32.4855 49.9497 32.4855 50.0326 32.5628C50.121 32.6457 50.1266 32.7783 50.1266 32.8999C50.1376 34.9774 50.1487 37.055 50.1597 39.1325C50.5299 37.8506 50.9056 36.5632 51.2758 35.2813C51.3366 35.0658 51.4084 34.8393 51.5742 34.6846C51.8891 34.3917 52.4306 34.5022 52.7345 34.8117C53.0384 35.1211 53.1655 35.5521 53.276 35.972C53.5633 37.0218 53.8506 38.0772 54.1435 39.127C54.1601 37.0605 54.1711 34.994 54.1877 32.933C54.1877 32.8281 54.1877 32.7175 54.254 32.6291C54.2595 32.6236 54.2651 32.6126 54.2706 32.607L54.2651 32.607Z" fill="#C33130"/>
<path d="M45.1913 33.9391C45.1913 33.9391 45.1748 33.9226 45.1692 33.917C45.0919 33.8563 44.9869 33.8563 44.8875 33.8563C44.2134 33.8673 43.5337 33.8784 42.8596 33.8839C42.7491 33.8839 42.6331 33.8839 42.5281 33.8397C42.2463 33.7126 42.2298 33.3203 42.2629 33.0109C42.2795 32.8451 42.3071 32.6517 42.4508 32.5633C42.5392 32.5026 42.6552 32.5026 42.7657 32.5026C44.0586 32.5026 45.3516 32.5026 46.6445 32.5026C46.7661 32.5026 46.9097 32.5081 46.9871 32.602C47.0534 32.6794 47.0589 32.7899 47.0589 32.8893C47.07 35.326 47.0865 37.7682 47.0976 40.2049C47.1087 42.509 45.451 42.6361 43.4564 42.3598C43.1746 42.3211 42.8817 42.2769 42.6442 42.1277C42.4066 41.9786 42.2187 41.6912 42.285 41.415C42.39 40.9619 42.9867 40.8735 43.4509 40.879C43.9316 40.8845 44.4067 40.8956 44.8875 40.9011C45.0035 40.9011 45.1361 40.9011 45.2135 40.8072C45.2687 40.7353 45.2742 40.6414 45.2742 40.5475C45.2742 39.9507 45.2798 39.3485 45.2853 38.7517C45.2853 38.6357 45.2853 38.5086 45.2356 38.4036C45.1029 38.1274 44.7162 38.1108 44.4067 38.155C44.0697 38.2047 43.7216 38.2766 43.3901 38.2103C43.0586 38.1439 42.727 37.8843 42.7105 37.5417C42.6994 37.2323 42.9481 36.9615 43.2354 36.851C43.5227 36.7405 43.8487 36.7626 44.1526 36.7902C44.4067 36.8179 44.6664 36.8455 44.9206 36.8289C45.0311 36.8234 45.1527 36.8013 45.2135 36.7129C45.2687 36.641 45.2687 36.5416 45.2687 36.4477C45.2687 35.7183 45.2687 34.9945 45.2687 34.2651C45.2687 34.1491 45.2632 34.0165 45.1858 33.9336L45.1913 33.9391Z" fill="#C33130"/>
<path d="M38.456 42.0003C38.1853 42.3153 37.7488 42.481 37.025 42.4147C36.2404 42.3484 35.4558 42.2821 34.6712 42.2158C34.3562 42.1882 34.0136 42.1495 33.7982 41.923C33.649 41.7683 33.5827 41.5473 33.5329 41.3373C33.229 40.0554 33.3064 38.6851 33.7484 37.4474C33.3009 36.1932 33.2235 34.8063 33.5219 33.5079C33.5771 33.2703 33.649 33.0216 33.8203 32.8448C34.1021 32.552 34.5551 32.5299 34.9585 32.5299C36.2238 32.5243 37.4946 32.5188 38.7599 32.5078C38.7931 34.8947 38.8262 37.2872 38.8594 39.6742C38.8704 40.6024 38.887 41.492 38.456 41.9948L38.456 42.0003ZM35.1574 38.5083C35.1574 38.5083 35.1574 38.5304 35.1574 38.5415C35.1574 39.1824 35.1519 39.8178 35.1463 40.4588C35.1463 40.5637 35.1463 40.6687 35.2016 40.7571C35.2624 40.8566 35.3784 40.9118 35.4944 40.945C37.1686 41.4202 37.1742 39.4421 37.0084 38.3536C36.9973 38.2707 36.9752 38.1823 36.9089 38.1271C36.8482 38.0829 36.7653 38.0773 36.6934 38.0829C36.3122 38.0829 35.9309 38.0884 35.5497 38.0939C35.4558 38.0939 35.3563 38.0939 35.279 38.1547C35.174 38.232 35.1574 38.3757 35.1574 38.5083ZM35.1574 34.2206C35.1574 34.9444 35.1574 35.6683 35.1574 36.3866C35.1574 36.4971 35.1629 36.6242 35.2458 36.7015C35.3232 36.7733 35.4392 36.7789 35.5386 36.7789C36.4393 36.7789 36.6824 36.9667 37.0139 36.2871C37.1023 36.0992 36.9421 33.8007 37.0139 33.8007L35.5442 33.8007C35.4392 33.8062 35.3232 33.8117 35.2458 33.8836C35.1684 33.9609 35.1629 34.0825 35.1629 34.1985L35.1629 34.2206L35.1574 34.2206Z" fill="#C33130"/>
<path d="M27.8701 32.6574C27.9917 32.7513 28.0911 32.8729 28.1464 33.0165C28.3232 33.4972 28.0304 34.1824 28.4613 34.4586C28.6105 34.5526 28.7984 34.5581 28.9752 34.5526C29.2957 34.5526 29.6161 34.547 29.9311 34.5415C30.1024 34.5415 30.2847 34.536 30.4228 34.431C30.7765 34.1658 30.5002 33.5967 30.5886 33.1602C30.666 32.79 31.0362 32.5358 31.4119 32.4695C31.7876 32.4032 32.1689 32.4916 32.5391 32.5745C32.1633 34.7294 31.771 36.8787 31.3622 39.0226C31.0196 40.846 30.9864 42.4152 28.721 42.2991C28.5663 42.2936 28.395 42.2715 28.2845 42.1665C28.1961 42.0781 28.163 41.9455 28.1353 41.8184C27.4944 38.7463 26.8479 35.6742 26.207 32.6021C26.5551 32.5027 26.9198 32.3977 27.2789 32.4364C27.4889 32.4585 27.6988 32.5303 27.8646 32.6574L27.8701 32.6574ZM30.2184 35.9173C29.804 35.8731 29.3841 35.8566 28.9697 35.8787C28.8978 35.8787 28.815 35.8897 28.7652 35.9394C28.7045 35.9947 28.6989 36.0831 28.6934 36.1604C28.6326 37.3097 28.7376 38.8679 29.4117 39.8182C29.5719 39.5254 30.3455 35.9339 30.2571 35.9229C30.246 35.9229 30.235 35.9229 30.2239 35.9229L30.2184 35.9173Z" fill="#C33130"/>
<path d="M24.9747 41.995C24.6984 42.3154 24.2398 42.4757 23.4939 42.4204C22.7148 42.3652 21.9302 42.2878 21.1566 42.1939C20.8527 42.1552 20.5212 42.1055 20.3057 41.8844C20.1455 41.7187 20.0792 41.4866 20.035 41.2601C19.7642 39.9948 19.8471 38.6576 20.2781 37.4365C19.8416 36.1933 19.7532 34.8286 20.0405 33.5467C20.1013 33.2649 20.1952 32.9665 20.4162 32.7786C20.6815 32.5521 21.0572 32.5355 21.4053 32.5355C22.5767 32.519 23.7536 32.5079 24.9249 32.4913C25.0244 32.4913 25.1294 32.4913 25.2012 32.5576C25.2786 32.6295 25.2841 32.7455 25.2841 32.8505C25.3172 35.2153 25.3559 37.5802 25.3891 39.945C25.4001 40.8181 25.3614 41.5529 24.9747 41.995ZM21.7092 38.514C21.6871 38.746 21.6705 38.9781 21.6484 39.2102C21.6042 39.7351 21.571 40.3152 21.8805 40.7407C23.0684 42.3762 23.6596 39.2212 23.5491 38.525C23.527 38.4035 23.4994 38.2709 23.411 38.188C23.2894 38.0719 23.1071 38.0719 22.9413 38.0775C22.6651 38.0885 22.3888 38.094 22.1125 38.1051C22.0075 38.1051 21.8915 38.1162 21.8142 38.188C21.7313 38.2598 21.7147 38.3814 21.7092 38.4919L21.7092 38.514ZM21.6871 34.2263C21.6871 34.9391 21.6871 35.6518 21.6871 36.3646C21.6871 36.4641 21.6871 36.5746 21.7479 36.6519C21.8086 36.7293 21.9026 36.7624 21.9965 36.779C24.4332 37.3205 23.1734 33.8174 23.5491 33.8174L22.0628 33.8174C21.9578 33.8119 21.8473 33.8174 21.77 33.8837C21.6926 33.9611 21.6871 34.0826 21.6871 34.1876L21.6871 34.2208L21.6871 34.2263Z" fill="#C33130"/>
<path d="M15.1665 32.6128C15.5919 32.4968 16.045 32.4526 16.487 32.4858C16.581 32.4913 16.6749 32.5079 16.7522 32.5631C16.8849 32.6626 16.8904 32.8615 16.8849 33.0328C16.8351 34.7512 17.1335 36.4806 17.7523 38.0885C18.1115 39.0112 18.6032 39.945 18.7303 40.9396C18.8298 41.7131 18.5701 43.2436 17.5368 42.1109C17.2551 41.8015 17.139 41.3816 17.0285 40.9838C16.708 39.8124 16.3876 38.6465 16.0726 37.4752C15.6859 38.9173 15.2991 40.3539 14.9123 41.796C14.8736 41.9397 14.8294 42.0944 14.7079 42.1883C14.5974 42.2767 14.4426 42.2933 14.299 42.2988C13.8791 42.3099 13.4591 42.2712 13.0503 42.1828C13.4536 40.5915 14.0945 39.0665 14.5753 37.4917C15.056 35.917 15.3709 34.2539 15.1112 32.6349C15.1278 32.6294 15.1499 32.6239 15.1665 32.6184L15.1665 32.6128Z" fill="#C33130"/>
</g>
<defs>
<clipPath id="clip0_2650_87485">
<rect width="68.3901" height="138.885" fill="white" transform="matrix(1 -8.74228e-08 -8.74228e-08 -1 0 138.884)"/>
</clipPath>
</defs>
</svg>