<svg xmlns:xlink="http://www.w3.org/1999/xlink" xmlns="http://www.w3.org/2000/svg" width="24" height="24" viewBox="0 0 24 24" fill="none">
<path fill-rule="evenodd" clip-rule="evenodd" d="M21.0676 0C21.8449 0 22.5904 0.308795 23.1401 0.858452C23.6897 1.40811 23.9985 2.15361 23.9985 2.93094V21.0661C23.9985 21.8435 23.6897 22.589 23.1401 23.1386C22.5904 23.6883 21.8449 23.9971 21.0676 23.9971H16.0769V14.9566H19.1977L19.7919 11.0841H16.0769V8.573C16.0511 8.28379 16.0907 7.99247 16.1927 7.72062C16.2947 7.44876 16.4565 7.20331 16.6661 7.00244C16.8758 6.80157 17.128 6.65041 17.4039 6.56016C17.6799 6.46991 17.9726 6.44287 18.2605 6.48104H19.9502V3.18373C18.9582 3.02353 17.9558 2.9361 16.9511 2.92215C13.8905 2.92215 11.8908 4.7767 11.8908 8.13482V11.0863H8.488V14.9588H11.8901V23.9993H2.93094C2.15361 23.9993 1.40811 23.6905 0.858452 23.1408C0.308795 22.5912 0 21.8457 0 21.0683V2.93094C0 2.15361 0.308795 1.40811 0.858452 0.858452C1.40811 0.308795 2.15361 0 2.93094 0L21.0661 0H21.0676Z" fill="#C33130"/>
</svg>