<svg xmlns:xlink="http://www.w3.org/1999/xlink" xmlns="http://www.w3.org/2000/svg" width="40" height="40" viewBox="0 0 40 40" fill="none">
<path d="M39.8891 19.4463C38.6001 17.2498 37.1468 15.152 35.5414 13.1705C35.4176 13.0467 35.2938 12.8014 35.1689 12.6776C34.7456 12.2036 34.5231 11.5861 34.5477 10.9537C34.0502 6.03159 33.5528 3.81588 33.5528 3.20035C33.429 2.46214 33.1814 1.8466 32.1865 1.72393C31.076 1.56142 29.9551 1.47907 28.8326 1.47751C28.5241 1.47817 28.2266 1.59164 27.9973 1.79619C27.768 2.00073 27.623 2.28195 27.5901 2.5859V4.43142C27.5901 4.55409 27.5901 4.67676 27.3414 4.80052C27.2175 4.80052 27.2176 4.80052 27.0937 4.67676C25.2905 3.18824 23.3808 1.83095 21.3798 0.615536C21.0163 0.250717 20.5298 0.0315472 20.0135 0C19.6126 0.0134344 19.2243 0.142054 18.8959 0.370193C11.2529 5.13119 4.86539 11.6285 0.262724 19.3237C0.119044 19.5165 0.0314222 19.7446 0.00940101 19.9833C-0.0126201 20.2219 0.03182 20.462 0.137834 20.6774C0.239614 20.8533 0.383701 21.0016 0.557275 21.1089C0.730848 21.2163 0.928513 21.2795 1.1327 21.2929C1.1327 21.2929 3.86532 21.6631 4.36166 21.6631C4.98291 21.6631 4.98293 22.156 4.98293 22.156C4.9582 27.7504 5.2901 33.3408 5.97669 38.8938C6.01002 39.1647 6.14191 39.4142 6.34765 39.5957C6.55338 39.7772 6.81887 39.8781 7.09431 39.8795C7.46684 39.8795 8.83423 39.7557 12.5606 39.7557C12.8094 39.7557 12.8093 39.6331 12.8093 39.5104C12.4357 35.8194 12.3119 32.7406 12.3119 32.4942C12.3125 32.4617 12.3065 32.4293 12.2942 32.3992C12.2819 32.369 12.2636 32.3416 12.2404 32.3186C12.2172 32.2956 12.1895 32.2775 12.1591 32.2653C12.1286 32.2531 12.096 32.2471 12.0632 32.2477C11.3848 31.8626 10.8209 31.307 10.4283 30.6371C10.0356 29.9672 9.82823 29.2065 9.82692 28.4319C9.82692 21.1714 10.3244 15.6326 10.3244 15.6326C10.3223 15.5351 10.3401 15.4382 10.3768 15.3477C10.4135 15.2572 10.4683 15.175 10.5379 15.106C10.6075 15.0371 10.6905 14.9828 10.7818 14.9464C10.8732 14.91 10.971 14.8924 11.0694 14.8944C11.6907 14.8944 11.6907 15.7564 11.6907 15.7564C11.443 18.833 11.3181 24.4944 11.3181 24.4944C11.3181 24.4944 11.3182 25.6017 12.313 25.6017C13.3079 25.6017 13.3068 24.4944 13.3068 24.4944C13.3068 20.0641 13.6793 15.7564 13.6793 15.7564C13.6772 15.6589 13.6951 15.562 13.7318 15.4715C13.7685 15.381 13.8233 15.2987 13.8929 15.2298C13.9625 15.1608 14.0455 15.1065 14.1368 15.0701C14.2282 15.0338 14.326 15.0161 14.4244 15.0182C15.0456 15.0182 15.0456 15.8802 15.0456 15.8802C14.7969 19.696 14.672 24.6181 14.672 24.6181C14.672 24.6181 14.672 25.7255 15.6658 25.7255C16.6596 25.7255 16.6607 24.6181 16.6607 24.6181C16.6607 20.9271 17.0321 15.8802 17.0321 15.8802C17.03 15.7826 17.0479 15.6857 17.0846 15.5952C17.1213 15.5047 17.1761 15.4225 17.2457 15.3535C17.3153 15.2846 17.3983 15.2303 17.4896 15.1939C17.5809 15.1576 17.6788 15.1399 17.7772 15.1419C18.3984 15.1419 18.3984 15.8802 18.3984 15.8802C18.0259 19.8176 18.0259 25.8481 18.0259 28.4329C18.0503 29.198 17.8672 29.9556 17.4956 30.6267C17.1241 31.2979 16.5777 31.858 15.9134 32.2488C15.8802 32.2645 15.8506 32.2867 15.8263 32.314C15.802 32.3413 15.7835 32.3732 15.7719 32.4078C15.7603 32.4423 15.756 32.4789 15.759 32.5152C15.762 32.5515 15.7724 32.5868 15.7896 32.619C15.9134 34.9574 16.0372 37.6649 16.2859 39.6352C16.2906 39.699 16.3183 39.7589 16.364 39.804C16.4097 39.8491 16.4703 39.8763 16.5347 39.8806H24.9813C25.0454 39.8761 25.1058 39.8487 25.1513 39.8037C25.1967 39.7586 25.2243 39.6988 25.2289 39.6352C25.6014 36.1885 25.7263 33.7274 25.7263 33.481C25.7271 33.4485 25.7212 33.4162 25.709 33.3861C25.6969 33.3559 25.6787 33.3285 25.6555 33.3055C25.6324 33.2825 25.6048 33.2643 25.5744 33.2521C25.5441 33.2399 25.5115 33.2339 25.4787 33.2345C24.9813 33.2345 23.9875 32.9892 22.9937 32.8665C22.1237 32.7417 21.9999 31.6344 21.9999 31.6344C21.4883 25.4065 23.2517 19.2039 26.9688 14.1562C27.118 13.9451 27.3291 13.7846 27.5736 13.6966C27.8181 13.6086 28.084 13.5974 28.3351 13.6644C28.5558 13.7555 28.7443 13.9093 28.8769 14.1063C29.0095 14.3034 29.0802 14.5349 29.0802 14.7717C29.5979 23.0175 29.4319 31.2915 28.5839 39.5104C28.5839 39.7557 28.7077 39.8795 28.8315 39.8795C31.3154 40.0022 32.4341 40.0022 32.6828 40.0022C32.9521 39.9818 33.2073 39.8744 33.4092 39.6966C33.611 39.5187 33.7485 39.2802 33.8004 39.0175C34.5642 33.4714 34.8965 27.8753 34.7942 22.2787C34.8074 22.1199 34.8772 21.971 34.991 21.8584C35.1047 21.7459 35.2552 21.6771 35.4154 21.6642C35.9118 21.6642 38.6444 21.294 38.6444 21.294C38.8486 21.2807 39.0463 21.2176 39.2199 21.1102C39.3935 21.0028 39.5376 20.8545 39.6393 20.6785C39.8142 20.5308 39.9339 20.3289 39.9788 20.1056C40.0237 19.8822 39.9913 19.6503 39.8869 19.4474" fill="#C33130"/>
</svg>