<svg xmlns:xlink="http://www.w3.org/1999/xlink" xmlns="http://www.w3.org/2000/svg" width="69" height="140" viewBox="0 0 69 140" fill="none">
<g clip-path="url(#clip0_2646_87417)">
<path d="M15.3123 52.7264C14.4233 52.6332 13.7867 51.2179 13.3711 50.6967C12.4715 49.5282 5.63249 42.4297 7.0266 41.3106C7.5632 40.8827 8.41544 40.8937 8.94152 41.3216C12.3084 44.1303 14.9493 47.5589 16.5802 51.2508C16.8695 51.8981 16.3066 52.6826 15.4544 52.7319H15.3176" fill="#C43330"/>
<path d="M34.0136 49.2593C33.2876 49.2593 32.6879 48.793 32.6616 48.195C32.488 44.2069 32.2092 40.1639 31.8251 36.1867C31.762 35.5778 32.3249 35.0457 33.0667 35.0018C35.8602 34.8318 35.2973 46.6481 35.3709 48.1128C35.3972 48.7217 34.808 49.2318 34.0715 49.2538H34.0189L34.0136 49.2593Z" fill="#C43330"/>
<path d="M49.8273 53.7525C47.0339 53.7525 49.7011 51.3607 50.4902 50.7243C53.4047 48.3326 56.498 46.056 59.4914 43.719C60.8802 42.6274 64.3629 42.8633 62.3953 44.5145C58.6917 47.6468 54.7619 50.664 50.7269 53.5056C50.4744 53.6757 50.164 53.7634 49.8484 53.7634" fill="#C43330"/>
<path d="M34.8898 136.563C34.8898 136.563 34.9003 136.574 34.9161 136.591C40.0716 132.131 45.2325 127.66 50.388 123.206C55.3437 118.916 61.8776 114.823 65.9494 109.453C63.4716 108.866 60.9148 109.453 58.4633 108.986C55.1701 108.35 55.633 109.063 55.37 104.905C55.007 98.8598 55.3437 92.6115 55.3332 86.5552C55.3332 82.9401 55.3069 79.3141 55.2963 75.7044C55.2858 70.6905 55.9224 70.0925 51.7769 69.7634C39.4982 68.7869 26.6672 69.2971 14.3727 69.906C14.5253 81.8375 15.6879 93.95 14.3727 105.816C13.8835 110.276 13.1575 109.244 9.40131 109.244C7.62316 109.244 5.71876 109.129 4.01953 109.414C8.37546 111.691 11.3951 116.326 15.1882 119.59C21.7484 125.257 28.3085 130.962 34.8898 136.591V136.563Z" stroke="#C43330" stroke-width="2.32" stroke-miterlimit="10"/>
</g>
<defs>
<clipPath id="clip0_2646_87417">
<rect width="68.3901" height="138.885" fill="white" transform="translate(0 0.673828)"/>
</clipPath>
</defs>
</svg>