<svg xmlns:xlink="http://www.w3.org/1999/xlink" xmlns="http://www.w3.org/2000/svg" width="39" height="40" viewBox="0 0 39 40" fill="none">
<g clip-path="url(#clip0_375_47253)">
<path d="M24.2257 0L22.994 13.1766L20.8931 2.06848L14.2986 3.64361L16.4003 14.7525L6.89355 17.0197L8.57487 25.8935L25.2873 29.8832L29.1103 20.2428L30.9279 0.79639L24.2257 0ZM18.9461 19.1142C18.7735 19.2687 18.5567 19.3654 18.3261 19.3907C18.0955 19.416 17.8627 19.3687 17.6605 19.2554C17.1778 19.0774 16.9615 18.4183 17.1447 17.6258C17.2817 17.0373 17.923 16.9498 18.2433 16.9414C18.3663 16.9381 18.488 16.9666 18.5966 17.0243C18.7581 17.0912 18.9033 17.1917 19.0228 17.3189C19.1423 17.4462 19.2332 17.5974 19.2895 17.7623C19.354 17.9981 19.3563 18.2464 19.2961 18.4833C19.2359 18.7201 19.1154 18.9375 18.9461 19.1142ZM23.7846 19.7242C23.5313 20.2137 22.8738 20.2758 22.2287 19.9237C21.7922 19.6835 21.7961 19.0736 21.8438 18.7007C21.8683 18.5008 21.9412 18.3099 22.0563 18.1444C22.131 18.0118 22.2336 17.8968 22.357 17.8073C22.4805 17.7178 22.6218 17.6559 22.7715 17.6258C23.0074 17.6164 23.2409 17.6753 23.444 17.7952C23.6472 17.9151 23.8111 18.091 23.9162 18.3017C24.015 18.5309 24.0547 18.7812 24.0317 19.0296C24.0087 19.278 23.9238 19.5168 23.7846 19.7242Z" fill="#C33130"/>
<path d="M27.9711 34.6156C27.6893 34.6098 27.4109 34.6776 27.1635 34.8122C26.9161 34.9468 26.7083 35.1435 26.5607 35.3828L26.419 34.7322H25.0557L25.2766 35.7396V39.8827H26.5992V36.5989C26.6899 36.4272 26.8276 36.2847 26.9963 36.1879C27.165 36.091 27.3578 36.0439 27.5523 36.0518C27.8185 36.0487 28.079 36.1292 28.2967 36.282L28.9249 34.8726C28.6366 34.7014 28.3066 34.6125 27.9711 34.6156Z" fill="#C33130"/>
<path d="M30.9786 34.626C30.264 34.626 29.5787 34.9089 29.0734 35.4125C28.568 35.9161 28.2842 36.5991 28.2842 37.3113C28.2842 38.0235 28.568 38.7065 29.0734 39.2101C29.5787 39.7137 30.264 39.9966 30.9786 39.9966C31.6932 39.9966 32.3785 39.7137 32.8839 39.2101C33.3892 38.7065 33.673 38.0235 33.673 37.3113C33.673 36.5991 33.3892 35.9161 32.8839 35.4125C32.3785 34.9089 31.6932 34.626 30.9786 34.626ZM30.9786 38.611C30.7223 38.6053 30.4733 38.5243 30.263 38.3781C30.0527 38.232 29.8903 38.0273 29.7962 37.7896C29.7021 37.5519 29.6805 37.2918 29.734 37.0419C29.7876 36.792 29.914 36.5634 30.0974 36.3848C30.2807 36.2062 30.5129 36.0855 30.7648 36.0378C31.0167 35.9901 31.2771 36.0176 31.5134 36.1168C31.7497 36.2159 31.9514 36.3824 32.0931 36.5953C32.2349 36.8082 32.3105 37.0581 32.3104 37.3136C32.3171 37.4883 32.287 37.6625 32.222 37.8249C32.157 37.9874 32.0586 38.1344 31.9332 38.2566C31.8077 38.3788 31.658 38.4735 31.4935 38.5346C31.3291 38.5956 31.1537 38.6216 30.9786 38.611Z" fill="#C33130"/>
<path d="M36.3881 34.6263C35.852 34.6099 35.3232 34.7534 34.8694 35.0384C34.4156 35.3233 34.0575 35.7368 33.8408 36.2258C33.6242 36.7148 33.559 37.2571 33.6535 37.7833C33.7479 38.3095 33.9978 38.7956 34.3712 39.1795C34.7445 39.5633 35.2243 39.8273 35.7491 39.9377C36.2739 40.0482 36.8198 40 37.3169 39.7994C37.8141 39.5988 38.2399 39.2549 38.5398 38.8117C38.8396 38.3685 38.9999 37.8461 39.0002 37.3116C39.0202 36.9607 38.967 36.6095 38.8439 36.2801C38.7208 35.9507 38.5305 35.6504 38.2851 35.398C38.0396 35.1457 37.7443 34.9468 37.4178 34.814C37.0913 34.6811 36.7407 34.6172 36.3881 34.6263ZM36.3881 38.6113C36.1318 38.6057 35.8828 38.5248 35.6723 38.3788C35.4619 38.2328 35.2994 38.0281 35.2051 37.7904C35.1109 37.5527 35.0892 37.2926 35.1427 37.0426C35.1962 36.7927 35.3225 36.5641 35.5059 36.3854C35.6892 36.2067 35.9214 36.0859 36.1733 36.0381C36.4252 35.9904 36.6856 36.0178 36.922 36.117C37.1583 36.2161 37.36 36.3826 37.5019 36.5955C37.6437 36.8084 37.7193 37.0583 37.7192 37.3139C37.7257 37.4885 37.6955 37.6626 37.6306 37.8249C37.5656 37.9872 37.4673 38.1342 37.3419 38.2563C37.2166 38.3785 37.067 38.4732 36.9027 38.5344C36.7384 38.5955 36.5632 38.6217 36.3881 38.6113Z" fill="#C33130"/>
<path d="M5.25856 32.4502H3.93521V35.3565C3.74073 35.1256 3.49743 34.9405 3.22272 34.8143C2.94802 34.6882 2.64872 34.6242 2.34627 34.6268C1.02292 34.6268 -0.000976562 35.7133 -0.000976562 37.3122C-0.000976562 38.9111 1.02292 39.9975 2.34627 39.9975C2.65651 40.0009 2.9635 39.9344 3.24436 39.803C3.52522 39.6716 3.7727 39.4787 3.96831 39.2387L4.10535 39.8893H5.4872L5.25626 38.819L5.25856 32.4502ZM2.61262 38.6119C2.35625 38.6063 2.10725 38.5254 1.89681 38.3794C1.68637 38.2334 1.52385 38.0287 1.42964 37.791C1.33543 37.5533 1.3137 37.2932 1.3672 37.0432C1.42069 36.7933 1.54701 36.5646 1.73034 36.3859C1.91366 36.2073 2.14585 36.0865 2.39777 36.0387C2.64968 35.991 2.91012 36.0184 3.14646 36.1175C3.3828 36.2167 3.58454 36.3832 3.72635 36.5961C3.86817 36.809 3.94376 37.0589 3.94367 37.3145C3.95033 37.4891 3.92022 37.6632 3.85529 37.8256C3.79036 37.988 3.69204 38.135 3.56667 38.2572C3.44129 38.3794 3.29163 38.4741 3.12731 38.5352C2.963 38.5963 2.78767 38.6224 2.61262 38.6119Z" fill="#C33130"/>
<path d="M17.3239 38.9136L16.3085 34.7383H14.8896L16.2707 39.8926H18.397L19.7781 34.7383H18.3385L17.3239 38.9136Z" fill="#C33130"/>
<path d="M22.2753 34.6259C21.9242 34.6177 21.5752 34.6824 21.2506 34.8159C20.926 34.9494 20.6329 35.1488 20.3898 35.4014C20.1467 35.654 19.959 35.9542 19.8387 36.283C19.7184 36.6118 19.6681 36.962 19.6909 37.3112C19.6698 37.6752 19.7274 38.0395 19.8597 38.3795C19.9921 38.7194 20.1961 39.0271 20.4581 39.2817C20.72 39.5363 21.0337 39.7318 21.3781 39.8552C21.7224 39.9785 22.0892 40.0267 22.4539 39.9966C23.1854 40.0013 23.9029 39.7971 24.5216 39.4081L24.0135 38.2672C23.54 38.5217 23.0118 38.6583 22.4739 38.6654C22.1905 38.6967 21.9044 38.6397 21.6549 38.5023C21.4054 38.3649 21.2047 38.1538 21.0805 37.8982H24.8034C24.8457 37.6976 24.8653 37.4931 24.8619 37.2882C24.8824 36.9404 24.8302 36.5922 24.7086 36.2655C24.5869 35.9389 24.3986 35.641 24.1554 35.3907C23.9122 35.1404 23.6196 34.9432 23.2959 34.8116C22.9723 34.6799 22.6247 34.6167 22.2753 34.6259ZM21.0019 36.8447C21.0668 36.5648 21.232 36.318 21.4664 36.1508C21.7008 35.9835 21.9884 35.9073 22.2753 35.9363C22.5625 35.904 22.8516 35.979 23.0867 36.1468C23.3217 36.3146 23.486 36.5633 23.5478 36.8447H21.0019Z" fill="#C33130"/>
<path d="M8.27556 34.6161C7.56095 34.6397 6.88503 34.9452 6.39647 35.4655C5.90792 35.9858 5.64674 36.6782 5.67043 37.3904C5.69411 38.1026 6.0007 38.7762 6.52275 39.2631C7.0448 39.7501 7.73955 40.0103 8.45416 39.9867C9.18598 39.9919 9.90392 39.7877 10.5227 39.3983L10.0146 38.2581C9.54107 38.5124 9.01283 38.6488 8.47495 38.6556C8.19162 38.6868 7.90553 38.6299 7.65601 38.4925C7.40649 38.3551 7.2058 38.144 7.08155 37.8883H10.8006C10.8429 37.6881 10.8625 37.4838 10.8591 37.2791C10.8798 36.9315 10.8279 36.5834 10.7065 36.2569C10.5852 35.9303 10.3971 35.6324 10.1543 35.3821C9.91138 35.1317 9.61897 34.9344 9.29558 34.8025C8.97219 34.6707 8.62486 34.6072 8.27556 34.6161ZM6.97683 36.8464C7.04157 36.5664 7.20667 36.3195 7.44114 36.1523C7.67561 35.985 7.96331 35.9088 8.25016 35.938C8.53734 35.9064 8.82607 35.9817 9.06095 36.1494C9.29583 36.317 9.46028 36.5653 9.5227 36.8464H6.97683Z" fill="#C33130"/>
<path d="M13.975 32.3496C13.7522 32.3496 13.5385 32.4378 13.3809 32.5949C13.2233 32.7519 13.1348 32.9649 13.1348 33.187C13.1348 33.4091 13.2233 33.6222 13.3809 33.7792C13.5385 33.9363 13.7522 34.0245 13.975 34.0245C14.1935 34.0179 14.4008 33.9268 14.553 33.7704C14.7052 33.6141 14.7903 33.4049 14.7903 33.187C14.7903 32.9692 14.7052 32.76 14.553 32.6036C14.4008 32.4473 14.1935 32.3562 13.975 32.3496Z" fill="#C33130"/>
<path d="M14.6329 34.7383H13.3096V39.8926H14.6329V34.7383Z" fill="#C33130"/>
<path d="M11.25 39.8934H12.5733V32.4512H11.25V39.8934Z" fill="#C33130"/>
</g>
<defs>
<clipPath id="clip0_375_47253">
<rect width="39" height="40" fill="white"/>
</clipPath>
</defs>
</svg>