<svg xmlns:xlink="http://www.w3.org/1999/xlink" xmlns="http://www.w3.org/2000/svg" width="219" height="175" viewBox="0 0 219 175" fill="none"><path d="M29.0346 70.324C28.3042 71.3542 26.1801 71.1714 25.2818 71.3183C23.2681 71.6227 10.1077 75.186 9.78588 72.7165C9.65072 71.7764 10.2711 70.728 11.1641 70.3816C16.8293 68.1624 22.7295 67.2585 28.2096 67.7606C29.1696 67.846 29.6854 69.0664 29.1507 70.1491L29.0524 70.3192" fill="#C43330"/><path d="M38.1756 45.0967C37.6648 45.9815 36.6855 46.3991 35.9766 46.0352C31.1744 43.55 26.2324 41.1505 21.2974 38.9214C20.5463 38.5785 20.3178 37.5391 20.7852 36.599C22.5596 33.056 36.0352 41.7587 37.7985 42.6709C38.5412 43.0544 38.7275 44.1147 38.2262 45.0352L38.1934 45.0919" fill="#C43330"/><path d="M54.6137 28.7855C52.6359 32.2111 51.7085 27.32 51.5195 25.9253C50.7689 20.7279 50.2832 15.4111 49.6463 10.1735C49.3518 7.7349 52.0788 3.63784 52.6339 7.16458C53.6865 13.8219 54.4576 20.6797 54.942 27.5383C54.9686 27.962 54.8476 28.4064 54.625 28.792" fill="#C43330"/><path d="M79.636 46.3479C79.636 46.3479 79.7252 46.3238 79.7609 46.3142C80.0381 46.2776 80.3075 46.4634 80.5251 46.6344C81.162 47.1231 81.7988 47.6118 82.4244 48.0939C78.4246 52.9081 74.4249 57.7222 70.4252 62.5364C70.2228 62.7825 70.0026 63.0335 69.6944 63.0975C69.3618 63.1778 69.0276 62.9999 68.7226 62.8238C68.0559 62.4389 67.3893 62.054 66.7226 61.6691C66.4515 61.5126 66.1464 61.3364 66.0543 61.0262C65.9492 60.7386 66.0564 60.4224 66.1619 60.1355C67.5622 56.3009 68.956 52.4777 70.3451 48.6366C67.7179 51.778 65.0973 54.908 62.4701 58.0494C62.2742 58.2842 62.0606 58.5238 61.7703 58.583C61.4621 58.6471 61.1683 58.4775 60.8971 58.3209C60.2644 57.9556 59.6317 57.5903 58.9989 57.225C58.7164 57.0619 58.4227 56.8923 58.2949 56.5917C58.1672 56.2911 58.2649 55.9391 58.3608 55.6164C59.4625 51.8816 60.5529 48.1404 61.9925 44.525C62.3677 43.562 67.2969 35.6245 67.825 39.5893C67.8991 40.1917 67.6751 40.7883 67.4595 41.3444C65.8127 45.4753 64.1029 49.585 62.3074 53.6603C65.0311 50.3779 67.7612 47.0843 70.4849 43.802C71.167 42.9859 72.018 42.0858 73.0703 42.1942C74.0821 42.2944 74.7656 43.3545 74.8193 44.3837C74.8729 45.4128 74.4507 46.379 74.0594 47.3176C72.5539 50.8646 71.2149 54.4624 70.0406 58.1402C73.0524 54.3588 76.0464 50.5822 79.0582 46.8008C79.2165 46.6048 79.3927 46.4041 79.6199 46.3235L79.636 46.3479Z" fill="#C43330"/><path d="M79.0619 65.3747C79.1296 65.7011 79.4733 65.9147 79.7914 66.0681C80.4504 66.3881 81.1028 66.7194 81.7617 67.0393C82.3463 67.3314 82.9535 67.6366 83.3488 68.1522C83.7441 68.6678 83.8526 69.4715 83.4187 69.9621C82.7843 70.6696 81.6334 70.2623 80.8134 69.8039C78.8051 68.6898 76.8361 67.5077 74.8999 66.2688C74.7417 66.1775 74.5853 66.0569 74.5378 65.8783C74.4903 65.6996 74.5951 65.5181 74.6868 65.3593C77.0218 61.2628 79.3503 57.1776 81.6853 53.0811C84.0334 48.9619 88.9983 49.469 91.5566 53.3357C91.8342 53.7682 92.082 54.3045 91.9057 54.7925C91.7163 55.3032 91.1041 55.5547 90.5699 55.4883C90.0358 55.4219 89.5499 55.1414 89.0867 54.874C88.2797 54.3929 87.4793 53.9005 86.6723 53.4195C86.5141 53.3282 86.3559 53.2369 86.1745 53.238C85.8925 53.2567 85.7062 53.5272 85.5621 53.7768C84.9924 54.7636 84.4048 55.7553 83.8237 56.7356C83.6535 57.0305 83.4701 57.3481 83.5312 57.6859C83.6 58.0886 83.9758 58.3509 84.3279 58.5239C84.9916 58.8617 85.7338 59.0634 86.332 59.5147C86.9302 59.9659 87.3546 60.7705 87.0491 61.4562C86.5923 62.5082 84.9899 62.309 84.0968 61.6119C83.3487 61.0288 82.4063 60.1822 81.6304 60.7173C81.4042 60.8741 81.2602 61.1236 81.1161 61.3732C80.4921 62.4799 79.8682 63.5867 79.2556 64.7001C79.1508 64.8815 79.0329 65.0857 79.0608 65.2984C79.0655 65.3163 79.0637 65.3455 79.0685 65.3634L79.0619 65.3747Z" fill="#C43330"/><path d="M98.9776 57.938C99.2585 57.843 99.5601 57.7903 99.9098 57.8107C102.008 57.9334 104.919 60.6422 106.331 62.0322C106.629 62.3251 106.936 62.6538 107.01 63.0744C107.074 63.4592 106.921 63.8548 106.752 64.226C105.812 66.3756 104.69 68.4499 103.398 70.4264C102.933 71.1263 102.403 71.8633 101.623 72.1695C100.741 72.5225 99.7273 72.2697 98.8828 71.8275C98.0383 71.3854 97.3231 70.7455 96.4851 70.292C96.2027 70.1289 95.8488 69.9851 95.5418 70.1255C95.3193 70.2238 95.1883 70.4507 95.0639 70.6662C94.119 72.3288 93.192 73.9866 92.2472 75.6492C92.1555 75.808 92.0573 75.9782 91.8675 76.0198C91.7134 76.0519 91.56 75.9784 91.4244 75.9001C90.7625 75.5331 90.0893 75.1596 89.4274 74.7925C89.2579 74.6947 89.0659 74.5838 89.0136 74.3873C88.9614 74.1907 89.0614 73.9914 89.1662 73.8099C91.5816 69.548 93.9904 65.2975 96.4171 61.0422C97.1309 59.8058 97.7746 58.3777 98.9776 57.938ZM100.371 68.4671C101.262 66.9245 102.152 65.3819 103.043 63.8392C103.141 63.6691 103.259 63.4649 103.207 63.2684C103.171 63.0962 103.032 62.9709 102.898 62.8634C98.893 59.5981 97.7825 67.9406 96.9463 67.4579L99.3191 68.8278C99.4886 68.9256 99.6807 69.0365 99.877 68.9835C100.085 68.937 100.22 68.728 100.325 68.5465C100.338 68.5239 100.358 68.4898 100.371 68.4671Z" fill="#C43330"/><path d="M107.14 76.2619C106.846 76.3796 106.58 76.7099 106.414 77.0227C105.476 78.674 104.531 80.3366 103.604 81.9944C103.486 82.1985 103.349 82.4367 103.105 82.4929C102.891 82.5507 102.677 82.4268 102.484 82.3159C101.908 81.9832 101.332 81.6505 100.774 81.313C100.581 81.2021 100.373 81.0668 100.316 80.8524C100.271 80.6445 100.377 80.4338 100.482 80.2523C102.876 76.0537 105.27 71.8551 107.657 67.6678C110.352 62.9474 114.053 65.1747 117.253 68.217C117.651 68.5979 118.065 69.0032 118.16 69.5423C118.239 69.9808 118.1 70.43 117.951 70.8434C117.095 73.162 115.844 75.3285 114.253 77.223C113.514 78.112 112.336 79.0046 111.304 78.4694C110.91 81.1609 110.527 83.8589 110.133 86.5504C109.434 86.2223 108.723 85.8876 108.017 85.5708C107.688 85.4108 107.341 85.2556 107.137 84.9564C106.836 84.5109 106.919 83.9236 107.005 83.3834C107.354 81.4221 107.663 79.4526 107.931 77.4749C107.987 77.0384 107.987 76.4639 107.577 76.2875C107.435 76.2205 107.283 76.2234 107.144 76.2798L107.14 76.2619ZM112.016 68.5206C111.715 68.6496 111.399 68.936 110.982 69.3455C110.671 69.6498 108.291 73.6147 108.404 73.6799L110.777 75.0499C110.947 75.1477 111.127 75.2521 111.324 75.1991C111.52 75.1461 111.643 74.9598 111.748 74.7783C112.605 73.2923 113.463 71.8064 114.321 70.3205C114.42 70.1503 114.524 69.9688 114.483 69.7788C114.454 69.5953 114.304 69.4635 114.159 69.3494C113.116 68.5204 112.594 68.2496 112.011 68.5028L112.016 68.5206Z" fill="#C43330"/><path d="M124.52 71.9896C126.005 72.393 127.474 73.4228 128.673 74.7651C129.072 75.2223 129.444 75.7249 129.601 76.3145C130.037 77.8819 128.976 79.4322 128.04 80.767C126.654 82.7497 125.454 84.8547 124.441 87.0527C123.847 88.343 123.27 89.7339 122.115 90.5341C120.929 91.3618 119.334 91.4093 117.95 90.9884C116.566 90.5674 115.36 89.7347 114.189 88.8923C113.6 88.4768 112.997 88.0077 112.763 87.3433C112.415 86.3555 112.948 85.302 113.472 84.3946C115.41 81.037 117.331 77.6843 119.258 74.3203C120.594 72.0063 122.57 71.4535 124.532 71.9961L124.52 71.9896ZM119.513 87.943C121.53 84.4494 123.558 80.9623 125.587 77.4752C125.711 77.2596 125.842 77.0328 125.881 76.7829C125.949 76.2475 125.547 75.7433 125.064 75.5098C123.46 74.7653 122.475 75.8451 121.727 77.1674C120.001 80.2091 118.281 83.2393 116.555 86.281C116.451 86.4625 116.333 86.6666 116.379 86.8745C116.427 87.1295 116.669 87.2843 116.895 87.4148C117.358 87.6822 117.822 87.9497 118.296 88.2237C118.556 88.3737 118.863 88.5207 119.128 88.4013C119.308 88.3239 119.419 88.1311 119.524 87.9496L119.513 87.943Z" fill="#C43330"/><path d="M125.894 95.3926C125.894 95.3926 125.852 95.4136 125.823 95.4119C125.052 95.6775 124.109 95.2237 123.822 94.4682C123.283 93.0531 125.918 89.8711 126.575 88.7076C128.085 86.0403 129.59 83.3551 131.156 80.7204C131.764 79.6947 132.413 78.6481 133.428 78.039C133.865 77.7773 134.366 77.6131 134.87 77.707C135.627 77.8568 136.131 78.6016 136.266 79.3599C136.4 80.1182 136.212 80.887 136.038 81.6331C135.321 84.6224 134.623 87.6068 133.906 90.5961C136.07 88.5181 138.245 86.4467 140.416 84.3574C141.292 83.5174 142.401 82.6149 143.57 82.9119C144.647 83.1859 145.226 84.4275 145.147 85.5309C145.067 86.6344 144.473 87.6374 143.905 88.595C141.805 92.1014 139.705 95.6078 137.612 99.1029C137.226 99.7721 136.786 100.456 136.122 100.874C135.459 101.293 134.493 101.295 133.998 100.692C133.395 99.9351 133.867 98.8312 134.34 97.9853C136.15 94.8254 137.954 91.6476 139.764 88.4878C138.116 90.0624 136.469 91.637 134.833 93.2182C134.323 93.7102 133.795 94.207 133.125 94.4551C132.454 94.7031 131.624 94.6018 131.19 94.0488C130.724 93.447 130.87 92.5937 131.044 91.8476C131.617 89.3952 132.207 86.9379 132.779 84.4855C130.991 87.5821 129.203 90.6788 127.415 93.7754C127.042 94.4219 126.607 95.1235 125.912 95.3878L125.894 95.3926Z" fill="#C43330"/><path d="M148.882 86.705C149.625 86.514 150.417 86.9414 151.082 87.3555C151.274 87.4664 151.476 87.613 151.526 87.8388C151.556 88.0222 151.469 88.1989 151.371 88.3691C148.634 93.2922 145.897 98.2154 143.16 103.139C142.305 104.672 138.718 105.247 139.106 102.749C139.15 102.517 139.256 102.306 139.374 102.102C142.021 97.4142 144.706 92.7636 147.443 88.1277C147.763 87.5719 148.14 86.9724 148.744 86.7615C148.786 86.7405 148.833 86.7374 148.875 86.7164L148.882 86.705Z" fill="#C43330"/><path d="M151.751 106.525C152.08 106.216 152.352 105.798 152.57 105.395C152.969 104.703 153.364 103.993 153.752 103.294C153.916 103.011 154.081 102.698 154.025 102.378C153.983 102.112 153.791 101.895 153.58 101.713C152.452 100.744 150.654 100.493 150.018 99.1421C149.655 98.388 149.78 97.4924 149.994 96.6783C150.479 94.7953 152.006 90.505 154.127 89.8844C156.248 89.2638 159.793 92.0214 161.03 93.5067C161.368 93.9133 161.69 94.3719 161.835 94.8787C162.205 96.2723 161.227 97.6281 160.309 98.747C160.171 98.9089 160.019 99.0935 159.795 99.1156C159.636 99.1298 159.476 99.0677 159.334 99.0008C158.556 98.6269 157.818 98.1558 157.156 97.607C157.596 96.9233 158.001 96.1438 157.939 95.337C157.878 94.5302 157.191 93.7102 156.378 93.8151C155.664 93.9024 155.211 94.6088 154.858 95.2213C154.465 95.9019 154.083 96.589 153.701 97.2761C153.564 97.5143 153.413 97.7752 153.431 98.0576C153.448 98.4456 153.751 98.7564 154.07 98.9861C154.792 99.5091 155.644 99.8345 156.398 100.33C157.151 100.825 157.819 101.574 157.857 102.473C157.889 103.097 157.613 103.678 157.339 104.231C156.458 105.991 155.465 107.686 154.353 109.298C153.994 109.816 153.568 110.372 152.951 110.5C152.536 110.593 152.093 110.473 151.686 110.344C149.999 109.794 148.412 108.968 146.979 107.929C146.458 107.552 145.929 107.111 145.649 106.526C144.96 105.085 145.952 103.419 146.898 102.12C147.031 101.94 147.19 101.744 147.404 101.686C147.647 101.63 147.88 101.749 148.094 101.873C148.614 102.173 149.134 102.473 149.665 102.78C149.823 102.871 149.993 102.969 150.047 103.136C150.115 103.357 149.984 103.584 149.866 103.788C149.539 104.356 149.293 105.015 149.382 105.671C149.47 106.327 149.988 106.944 150.64 106.988C151.06 107.018 151.422 106.834 151.727 106.541L151.751 106.525Z" fill="#C43330"/><path d="M160.163 112.229C160.225 112.538 160.542 112.72 160.826 112.854C161.429 113.142 162.031 113.429 162.627 113.728C163.36 114.075 164.114 114.465 164.534 115.147C164.955 115.828 164.823 116.916 164.084 117.231C163.483 117.489 162.82 117.151 162.255 116.825C160.21 115.644 158.16 114.446 156.121 113.253C155.929 113.143 155.71 113.001 155.659 112.775C155.618 112.585 155.723 112.403 155.821 112.233C158.355 107.767 160.87 103.306 163.403 98.8401C165.701 94.7824 169.935 97.1816 172.542 99.9723C172.92 100.387 173.309 100.914 173.187 101.464C173.062 102.072 172.362 102.424 171.738 102.382C171.115 102.34 170.563 101.991 170.045 101.661C169.33 101.203 168.609 100.757 167.894 100.299C167.691 100.181 167.476 100.057 167.246 100.091C166.98 100.134 166.812 100.4 166.681 100.626C166.111 101.613 165.53 102.594 164.942 103.585C164.765 103.891 164.576 104.22 164.648 104.565C164.73 104.945 165.09 105.183 165.424 105.361C166.139 105.713 166.933 105.93 167.55 106.452C168.168 106.975 168.525 107.922 168.057 108.575C167.544 109.307 166.411 109.182 165.636 108.75C164.861 108.318 164.219 107.629 163.356 107.403C163.2 107.359 163.032 107.337 162.876 107.398C162.696 107.476 162.58 107.651 162.482 107.821C161.755 109.08 161.034 110.328 160.319 111.593C160.207 111.786 160.083 112.002 160.12 112.25L160.163 112.229Z" fill="#C43330"/><path d="M64.9966 68.0526C65.0393 68.2134 64.975 68.4031 64.9125 68.5636C64.4837 69.5411 63.4119 70.5103 62.4901 69.9932C61.8913 69.6475 61.4629 68.7196 60.7989 68.9563C60.5359 69.0465 60.3674 69.3122 60.2299 69.5504C57.6628 73.9968 55.1021 78.4319 52.535 82.8784C52.4302 83.0599 52.3058 83.2754 52.0934 83.304C51.9215 83.3409 51.752 83.243 51.5986 83.1696C50.9884 82.8173 50.3896 82.4716 49.7729 82.1306C49.6034 82.0328 49.4226 81.9284 49.3394 81.7594C49.1825 81.4571 49.3629 81.0924 49.5398 80.7861C51.4859 77.4935 53.4321 74.201 55.383 70.9262C56.0034 69.8779 56.6303 68.8181 57.0567 67.6881C57.1342 67.4757 57.2116 67.2633 57.1367 67.0537C57.0524 66.8084 56.786 66.6697 56.5534 66.5506C56.0432 66.2862 55.5318 65.9456 55.2352 65.4416C54.9386 64.9377 54.9057 64.2381 55.2889 63.809C55.943 63.0675 57.1391 63.5009 57.993 63.9788C60.2207 65.2347 62.4371 66.4841 64.6648 67.74C64.7778 67.8053 64.9021 67.877 64.9597 67.9859C64.9758 68.0103 64.9805 68.0282 64.9853 68.046L64.9966 68.0526Z" fill="#C43330"/><path d="M73.3145 73.1881C73.3145 73.1881 73.4638 73.1382 73.5352 73.1189C74.4888 72.9284 75.3479 73.8933 75.4164 74.8705C75.485 75.8478 75.0193 76.7586 74.5508 77.6224C72.0377 82.2362 69.3664 86.7586 66.5143 91.1767C66.4488 91.2901 66.3655 91.4084 66.2453 91.46C66.065 91.5374 65.8551 91.4313 65.6856 91.3335C65.1093 91.0008 64.5444 90.6746 63.9747 90.3305C63.7826 90.2196 63.5679 90.0957 63.4996 89.8748C63.4153 89.6295 63.5546 89.3621 63.6856 89.1352C64.7531 87.2863 65.8253 85.4552 66.904 83.6129C67.094 83.2839 67.2875 82.8965 67.1568 82.5489C67.0564 82.2792 66.7852 82.1226 66.5301 81.9904C65.9021 81.643 65.2741 81.2955 64.6396 80.9594C64.4475 80.8485 64.2263 80.7359 64.0121 80.7938C63.7801 80.8564 63.6378 81.0768 63.5199 81.2809C62.4852 83.0731 61.473 84.8784 60.4562 86.6657C60.2008 87.1081 59.8478 87.6151 59.3279 87.6023C59.0882 87.6 58.8687 87.4582 58.6653 87.3408C58.2199 87.0685 57.7858 86.8028 57.3404 86.5305C57.137 86.4131 56.9242 86.2599 56.8737 86.0342C56.8233 85.8084 56.9364 85.5864 57.0477 85.3936C58.3087 83.1573 59.581 80.9275 60.842 78.6913C61.9654 76.6932 63.1067 74.6903 64.3206 72.7444C64.9242 71.7771 69.0334 67.0866 69.1624 70.8816C69.1834 71.6802 68.7577 72.4175 68.3404 73.1143C67.4813 74.5239 66.6336 75.9401 65.7745 77.3497C65.6501 77.5652 65.5191 77.7921 65.5452 78.034C65.595 78.3652 65.9161 78.5658 66.1986 78.7288C66.8943 79.1154 67.5788 79.4955 68.2812 79.8707C68.4958 79.9947 68.7349 80.1025 68.9735 80.0285C69.1942 79.9593 69.3186 79.7438 69.4252 79.5331C70.2725 77.9351 71.1197 76.3372 71.967 74.7392C72.2849 74.1363 72.6892 73.4623 73.3061 73.2287L73.3145 73.1881Z" fill="#C43330"/><path d="M76.2235 97.191C75.8539 96.4483 76.8155 95.7482 77.1329 94.9635C77.4355 94.2307 77.1135 93.3794 76.5629 92.8195C76.0124 92.2597 75.2773 91.9411 74.5535 91.6291C72.3078 90.6653 72.6225 94.2953 70.7185 94.1488C70.4336 94.1204 70.1802 93.959 69.9495 93.8107C69.2752 93.3609 68.6008 92.911 67.9152 92.4547C71.0297 89.0956 74.1555 85.7429 76.8073 82.0109C77.6716 80.8009 78.517 79.5194 79.7451 78.6707C80.9733 77.822 82.7229 77.5315 83.9211 78.4048C85.5451 79.5843 85.3517 82.0589 84.7018 83.9674C82.9731 89.0492 79.1745 93.5409 78.9037 98.8896C78.2257 98.4982 77.5347 98.1295 76.8567 97.7381C76.6082 97.5946 76.337 97.438 76.2009 97.178L76.2235 97.191ZM75.5464 88.9961C76.2415 89.4882 76.9742 89.9414 77.7396 90.3379C77.8638 90.4097 78.0238 90.4718 78.1666 90.4333C78.2915 90.3995 78.3749 90.2813 78.4404 90.1678C79.6929 88.2594 81.3612 85.1089 81.0238 82.7967C80.4223 83.1603 75.4013 88.8821 75.5078 88.9587C75.5304 88.9717 75.5417 88.9782 75.5643 88.9913L75.5464 88.9961Z" fill="#C43330"/><path d="M98.1321 87.5316C98.2004 87.7525 98.233 87.983 98.2008 88.2215C98.0934 88.825 97.5316 89.3022 96.9124 89.3833C96.2931 89.4643 95.6793 89.1705 95.2626 88.7181C95.1032 88.5505 94.9636 88.3489 94.7518 88.272C94.2427 88.084 93.7939 88.6264 93.5254 89.0915C91.0172 93.4359 88.5268 97.7754 86.0299 102.126C85.912 102.33 85.7632 102.562 85.5264 102.607C85.3432 102.637 85.1559 102.544 84.9864 102.446C84.3537 102.081 83.7209 101.716 83.0995 101.357C82.9413 101.266 82.7718 101.168 82.7243 100.989C82.6608 100.786 82.7673 100.575 82.8721 100.394C85.4 96.0155 87.9279 91.6371 90.467 87.2652C90.5915 87.0497 90.7159 86.8342 90.7368 86.5892C90.7805 86.0699 90.3572 85.6289 89.9183 85.3453C89.4795 85.0617 88.9787 84.833 88.7029 84.3713C87.497 82.3895 91.4238 83.1292 92.1012 83.3388C93.8004 83.8661 95.3132 84.9512 96.7356 85.9842C97.3017 86.3866 97.9302 86.9159 98.1434 87.5381L98.1321 87.5316Z" fill="#C43330"/><path d="M118.118 98.9189C119.109 98.6895 119.855 100.058 120.862 100.428C119.501 99.9144 115.282 106.779 114.559 107.693L108.759 114.946C108.556 115.192 108.347 115.45 108.039 115.514C107.738 115.567 107.437 115.408 107.178 115.258C106.511 114.873 105.856 114.495 105.189 114.11C104.895 113.941 104.579 113.758 104.482 113.43C104.395 113.137 104.495 112.833 104.601 112.546C106.04 108.643 107.491 104.747 108.931 100.844C106.282 104.049 103.634 107.253 100.979 110.469C100.783 110.704 100.563 110.955 100.272 111.014C99.964 111.078 99.6524 110.914 99.3813 110.757C98.7146 110.372 98.0593 109.994 97.3926 109.609C97.1102 109.446 96.8051 109.27 96.7017 108.953C96.6192 108.679 96.702 108.378 96.7944 108.114C98.4838 103.1 100.288 98.1228 102.218 93.1877C102.488 92.5116 102.764 91.8242 103.281 91.3209C103.798 90.8176 104.627 90.5553 105.262 90.8914C106.377 91.4902 106.053 93.148 105.56 94.3152C103.897 98.3162 102.247 102.324 100.584 106.325C103.515 102.814 106.446 99.3036 109.383 95.7817C109.788 95.2894 110.241 94.7648 110.853 94.6188C111.929 94.3475 112.972 95.3583 113.174 96.443C113.377 97.5278 112.963 98.6351 112.578 99.6679C111.162 103.373 109.74 107.089 108.324 110.793C111.285 107.073 114.253 103.342 117.214 99.6224C117.43 99.3535 117.658 99.062 117.981 98.9461C118.024 98.9251 118.077 98.9106 118.124 98.9075L118.118 98.9189Z" fill="#C43330"/><path d="M117.503 117.832C117.583 118.059 117.825 118.214 118.04 118.338C119.271 119.049 120.516 119.738 121.754 120.437C121.957 120.555 122.183 120.685 122.252 120.906C122.341 121.169 122.188 121.459 122.051 121.698C121.867 122.015 121.673 122.326 121.478 122.637C121.367 122.83 121.226 123.021 121.019 123.068C120.829 123.11 120.642 123.016 120.472 122.919C118.111 121.555 115.749 120.192 113.399 118.835C113.241 118.744 113.071 118.646 113.006 118.472C112.926 118.244 113.035 118.005 113.159 117.789C115.614 113.459 118.068 109.129 120.523 104.799C121.322 103.415 122.022 102.02 123.65 101.992C125.565 101.963 128.38 104.238 129.735 105.414C130.084 105.722 130.455 106.072 130.513 106.544C130.654 107.578 129.214 108.169 128.248 107.807C127.281 107.446 126.58 106.572 125.67 106.062C125.263 105.827 124.746 105.679 124.317 105.901C124.014 106.059 123.824 106.388 123.654 106.683C123.159 107.592 122.653 108.494 122.159 109.404C122.054 109.585 121.949 109.767 121.948 109.977C121.905 110.573 122.56 110.951 123.115 111.166C123.784 111.416 124.495 111.645 125.027 112.133C125.558 112.622 125.84 113.465 125.457 114.076C125.099 114.67 124.276 114.816 123.622 114.619C122.967 114.423 122.422 113.957 121.887 113.527C121.391 113.134 120.713 112.743 120.178 113.069C119.929 113.213 119.785 113.463 119.641 113.712C118.973 114.869 118.316 116.033 117.659 117.196C117.568 117.355 117.47 117.525 117.493 117.72C117.496 117.767 117.505 117.803 117.515 117.838L117.503 117.832Z" fill="#C43330"/><path d="M133.066 107.626C133.225 107.612 133.429 107.624 133.737 107.665C134.044 107.706 136.156 109.137 135.991 109.345C134.459 111.424 132.154 112.755 129.906 114.013C129.215 114.401 128.173 114.692 127.8 114.007C128.974 112.235 130.253 109.994 131.862 108.564C132.518 107.975 132.601 107.675 133.066 107.626Z" fill="#C43330"/><path d="M135.116 122.631C134.835 122.726 134.623 123.042 134.459 123.326C133.521 124.977 132.594 126.635 131.649 128.297C131.498 128.558 131.303 128.869 131.004 128.893C130.798 128.91 130.617 128.806 130.436 128.701C129.86 128.369 129.279 128.018 128.709 127.674C128.529 127.57 128.343 127.448 128.291 127.251C128.238 127.054 128.339 126.855 128.443 126.674C130.832 122.457 133.215 118.252 135.616 114.042C136.685 112.164 137.405 110.629 139.7 110.986C141.775 111.307 143.646 113.128 145.131 114.469C145.585 114.883 146.072 115.345 146.175 115.949C146.272 116.459 146.065 116.975 145.866 117.45C145.023 119.458 143.934 121.37 142.655 123.142C141.843 124.262 140.483 125.443 139.264 124.814C138.886 127.53 138.519 130.253 138.142 132.969C137.426 132.616 136.704 132.275 135.977 131.916C135.591 131.723 135.183 131.518 135.002 131.126C134.847 130.794 134.895 130.399 134.959 130.027C135.276 128.017 135.593 126.007 135.909 123.997C135.997 123.427 135.923 122.643 135.359 122.575C135.272 122.57 135.189 122.583 135.118 122.602L135.116 122.631ZM139.963 114.888C137.917 115.431 136.939 120.387 136.415 120.069L138.553 121.349C138.768 121.473 138.994 121.603 139.23 121.559C139.514 121.511 139.689 121.234 139.845 120.991C140.588 119.756 141.313 118.526 142.056 117.291C142.193 117.053 142.344 116.792 142.355 116.512C142.354 116.148 142.11 115.841 141.851 115.585C141.137 114.916 140.516 114.739 139.974 114.895L139.963 114.888Z" fill="#C43330"/><path d="M144.429 133.377C144.429 133.377 144.446 133.478 144.478 133.527C144.552 133.66 144.688 133.738 144.823 133.817C145.627 134.251 146.438 134.673 147.242 135.107C147.831 135.417 148.437 135.751 148.812 136.301C149.188 136.851 149.254 137.675 148.77 138.122C148.112 138.74 147.05 138.309 146.271 137.859C144.3 136.706 142.329 135.553 140.359 134.4C140.189 134.302 139.997 134.191 139.956 134.001C139.904 133.805 140.009 133.623 140.096 133.446C142.36 129.445 144.632 125.433 146.896 121.432C149.358 117.091 154.832 117.212 157.18 121.834C157.342 122.154 157.484 122.508 157.386 122.86C157.256 123.345 156.689 123.623 156.194 123.594C155.698 123.565 155.229 123.309 154.799 123.061C153.918 122.552 153.037 122.043 152.155 121.534C151.963 121.423 151.76 121.306 151.541 121.346C151.235 121.381 151.04 121.692 150.889 121.953C150.32 122.94 149.756 123.915 149.198 124.909C149.054 125.158 148.903 125.419 148.944 125.714C148.992 126.075 149.304 126.316 149.621 126.499C150.321 126.903 151.122 127.108 151.759 127.597C152.395 128.086 152.799 129.03 152.36 129.713C151.952 130.34 151.03 130.398 150.345 130.123C149.66 129.849 149.114 129.307 148.483 128.912C148.151 128.705 147.747 128.517 147.366 128.63C146.955 128.741 146.702 129.154 146.503 129.523C145.873 130.642 145.249 131.748 144.618 132.867C144.52 133.037 144.427 133.225 144.439 133.413L144.429 133.377Z" fill="#C43330"/><path d="M189.944 104.484C190.675 103.454 192.799 103.636 193.697 103.49C195.711 103.185 208.871 99.6218 209.193 102.091C209.328 103.031 208.708 104.08 207.815 104.426C202.15 106.645 196.249 107.549 190.769 107.047C189.809 106.962 189.294 105.741 189.828 104.659L189.926 104.489" fill="#C43330"/><path d="M180.803 129.711C181.314 128.826 182.293 128.409 183.002 128.773C187.804 131.258 192.746 133.657 197.681 135.886C198.432 136.229 198.661 137.269 198.193 138.209C196.419 141.752 182.943 133.049 181.18 132.137C180.437 131.753 180.251 130.693 180.752 129.773L180.785 129.716" fill="#C43330"/><path d="M164.365 146.022C166.343 142.597 167.27 147.488 167.459 148.883C168.21 154.08 168.696 159.397 169.333 164.634C169.627 167.073 166.9 171.17 166.345 167.643C165.293 160.986 164.521 154.128 164.037 147.27C164.01 146.846 164.131 146.402 164.354 146.016" fill="#C43330"/></svg>