<svg xmlns:xlink="http://www.w3.org/1999/xlink" xmlns="http://www.w3.org/2000/svg" width="70" height="140" viewBox="0 0 70 140" fill="none">
<g clip-path="url(#clip0_2485_86613)">
<path d="M16.2557 18.4003C15.3666 18.307 14.7301 16.8917 14.3145 16.3705C13.4149 15.2021 6.57585 8.10352 7.96996 6.98443C8.50656 6.55654 9.3588 6.56751 9.88488 6.9954C13.2518 9.8041 15.8927 13.2327 17.5235 16.9246C17.8129 17.5719 17.25 18.3564 16.3977 18.4058H16.2609" fill="#C43330"/>
<path d="M34.957 14.9331C34.231 14.9331 33.6313 14.4668 33.605 13.8689C33.4314 9.88073 33.1525 5.83773 32.7685 1.86057C32.7054 1.25165 33.2683 0.719532 34.0101 0.675646C36.8035 0.505588 36.2406 12.3219 36.3143 13.7866C36.3406 14.3955 35.7514 14.9057 35.0149 14.9276H34.9623L34.957 14.9331Z" fill="#C43330"/>
<path d="M50.7707 19.4253C47.9772 19.4253 50.6444 17.0335 51.4335 16.3972C54.348 14.0054 57.4414 11.7288 60.4347 9.3919C61.8236 8.30023 65.3062 8.53612 63.3387 10.1873C59.6351 13.3197 55.7053 16.3369 51.6703 19.1785C51.4178 19.3485 51.1074 19.4363 50.7917 19.4363" fill="#C43330"/>
<path d="M35.8331 136.563C35.8331 136.563 35.8437 136.574 35.8594 136.591C41.015 132.131 46.1758 127.66 51.3314 123.206C56.287 118.916 62.8209 114.823 66.8928 109.453C64.4149 108.866 61.8582 109.453 59.4067 108.986C56.1134 108.35 56.5764 109.063 56.3133 104.905C55.9504 98.8598 56.287 92.6115 56.2765 86.5552C56.2765 82.9401 56.2502 79.3141 56.2397 75.7044C56.2292 70.6905 56.8657 70.0925 52.7202 69.7634C40.4416 68.7869 27.6105 69.2971 15.3161 69.906C15.4687 81.8375 16.6313 93.95 15.3161 105.816C14.8268 110.276 14.1009 109.244 10.3447 109.244C8.56652 109.244 6.66212 109.129 4.96289 109.414C9.31881 111.691 12.3385 116.326 16.1315 119.59C22.6917 125.257 29.2519 130.962 35.8331 136.591V136.563Z" stroke="#C43330" stroke-width="2.32" stroke-miterlimit="10"/>
<path d="M19.3467 30.5501C19.3467 30.5501 19.3578 30.5391 19.3633 30.5335C19.4628 30.4507 19.6009 30.4451 19.728 30.4451C20.1921 30.4451 20.6618 30.4451 21.1259 30.4451C21.264 30.4451 21.4132 30.4451 21.5127 30.5391C21.6287 30.644 21.6342 30.8153 21.6342 30.97C21.6342 35.0257 21.6342 39.0868 21.6342 43.1424C21.6342 43.2861 21.6287 43.4463 21.5292 43.5458C21.4298 43.6452 21.2695 43.6508 21.1259 43.6508C20.6673 43.6508 20.2087 43.6508 19.7501 43.6508C19.6009 43.6508 19.4407 43.6452 19.3357 43.5402C19.2307 43.4353 19.2252 43.275 19.2252 43.1314C19.2252 41.6671 19.2307 40.2085 19.2362 38.7442C19.2362 38.4901 19.2086 38.1917 18.9931 38.0701C18.8826 38.0094 18.7555 38.0094 18.6284 38.0094C18.1311 38.0094 17.6283 38.0094 17.131 38.0094C16.9487 38.0094 16.7387 38.0204 16.6172 38.1585C16.5122 38.2801 16.5067 38.4569 16.5067 38.6171C16.5122 40.0316 16.5177 41.4517 16.5233 42.8662C16.5233 43.1479 16.4956 43.4795 16.2525 43.6176C16.1254 43.6894 15.9762 43.6839 15.8326 43.6784C15.4182 43.6618 14.9983 43.6452 14.5839 43.6342C14.4512 43.6342 14.3021 43.6176 14.2137 43.5181C14.1308 43.4297 14.1253 43.2971 14.1253 43.1756C14.0921 40.2306 14.0534 37.2911 14.0147 34.3516C14.0037 33.1139 13.733 30.6109 15.4071 30.2959C15.7884 30.2241 16.2304 30.3733 16.4183 30.7159C16.5398 30.9369 16.5398 31.2076 16.5398 31.4563C16.5288 32.8597 16.5233 34.2632 16.5122 35.6721C16.5122 35.8213 16.5177 35.9871 16.6282 36.0865C16.7277 36.1749 16.8714 36.1805 17.004 36.1805C17.5676 36.1805 18.1367 36.1805 18.7003 36.1805C18.8494 36.1805 19.0152 36.1749 19.1202 36.07C19.2252 35.965 19.2307 35.7992 19.2307 35.65C19.2307 34.0863 19.2307 32.5282 19.2362 30.9645C19.2362 30.8153 19.2473 30.6496 19.3467 30.5446V30.5501Z" fill="#C33130"/>
<path d="M25.8564 30.5005C26.0608 30.4507 26.2818 30.4176 26.5194 30.401C27.4642 30.3292 28.4036 30.4949 29.3373 30.6607C29.6689 30.7215 30.017 30.7878 30.2546 31.0254C30.5363 31.3127 30.575 31.7547 30.5916 32.1581C30.7187 35.3904 30.7242 38.6283 30.6027 41.8551C30.5861 42.2861 30.5474 42.7668 30.2435 43.0707C30.017 43.2972 29.6854 43.3856 29.3705 43.4519C27.9118 43.7503 26.3979 43.7558 24.9336 43.4685C24.5911 43.4022 24.2374 43.3083 23.9943 43.0596C23.6794 42.7336 23.6462 42.2363 23.6352 41.7833C23.591 40.3356 23.5412 38.8824 23.497 37.4348C23.4142 34.8323 22.8948 31.1801 25.8508 30.4949L25.8564 30.5005ZM28.2599 41.2362C28.2599 38.5012 28.2599 35.7717 28.2654 33.0366C28.2654 32.8929 28.2654 32.7493 28.2046 32.6222C28.1107 32.4178 27.8897 32.3017 27.6742 32.2465C25.7459 31.7879 25.9227 34.2522 25.9337 35.4346C25.9503 37.374 25.9669 39.3134 25.9835 41.2528C25.9835 41.4186 25.9945 41.6009 26.1216 41.7059C26.221 41.7888 26.3647 41.7943 26.4973 41.7943C26.9228 41.7943 27.3427 41.7943 27.7681 41.7943C27.8952 41.7943 28.0389 41.7943 28.1383 41.7059C28.2544 41.6064 28.2599 41.4296 28.2599 41.2804V41.2473V41.2362Z" fill="#C33130"/>
<path d="M37.7399 30.5333C37.7399 30.5333 37.751 30.5223 37.762 30.5167C37.8946 30.3952 38.0991 30.4062 38.2759 30.4173C38.8782 30.4615 39.4804 30.5057 40.0827 30.5499C39.2649 34.7271 38.4416 38.9042 37.6239 43.0814C37.5907 43.2472 37.5521 43.4295 37.4195 43.5345C37.2868 43.6395 37.099 43.6505 36.9222 43.6505C36.3089 43.6505 35.6955 43.6505 35.0822 43.6505C34.8723 43.6505 34.6457 43.6505 34.4855 43.5124C34.3363 43.3853 34.2811 43.1809 34.2368 42.993C33.4964 39.8933 32.8003 36.788 32.1427 33.6717C31.988 32.9424 31.7836 28.8868 33.7948 30.5167C34.3087 30.9311 34.4468 31.6494 34.5518 32.307C34.9993 35.1746 35.4524 38.0423 35.9 40.9099C36.4636 37.5837 37.0272 34.2574 37.5907 30.9311C37.6128 30.7875 37.646 30.6383 37.7455 30.5333H37.7399Z" fill="#C33130"/>
<path d="M43.7627 41.7112C43.8511 41.7885 43.9837 41.7941 44.0997 41.7941C45.1108 41.7941 46.1275 41.7941 47.1387 41.7996C47.3155 41.7996 47.5144 41.8106 47.6249 41.9488C47.7078 42.0537 47.7078 42.1974 47.7022 42.3245C47.6967 42.6118 47.6912 42.9046 47.6857 43.192C47.6857 43.3135 47.6746 43.4461 47.5973 43.5345C47.5033 43.6395 47.3431 43.645 47.205 43.645C45.2379 43.6395 43.2709 43.6285 41.3039 43.6229C41.2541 40.5453 41.1989 37.4732 41.1492 34.3956C41.116 32.2794 40.9779 30.4229 43.5693 30.4229C44.7462 30.4229 45.9231 30.4229 47.1 30.4229C47.2105 30.4229 47.3376 30.4229 47.4204 30.5057C47.4978 30.5831 47.5088 30.6991 47.5144 30.8096C47.5254 31.1025 47.542 31.3953 47.5531 31.6882C47.5586 31.8152 47.5641 31.9534 47.5033 32.0639C47.3818 32.2849 47.0779 32.3125 46.8237 32.307C45.9341 32.3015 45.0501 32.2904 44.1605 32.2849C44.0223 32.2849 43.8732 32.2849 43.7737 32.3844C43.6742 32.4783 43.6687 32.633 43.6687 32.7711C43.6687 33.6828 43.6687 34.5945 43.6687 35.5062C43.6687 35.6333 43.6742 35.7714 43.7627 35.8653C43.8511 35.9537 43.9892 35.9593 44.1163 35.9593C44.8677 35.9593 45.6247 35.9593 46.3762 35.9537C46.5419 35.9537 46.7353 35.9648 46.8403 36.0919C46.9232 36.1913 46.9232 36.335 46.9232 36.4676C46.9232 36.7604 46.9176 37.0533 46.9121 37.3461C46.9121 37.4677 46.9066 37.6003 46.8237 37.6942C46.7298 37.7992 46.5695 37.8103 46.4259 37.8103C45.6468 37.8103 44.8677 37.8213 44.0942 37.8268C43.9616 37.8268 43.8124 37.8379 43.7295 37.9373C43.6632 38.0147 43.6632 38.1307 43.6632 38.2302C43.6632 39.2855 43.6632 40.3409 43.6632 41.3962C43.6632 41.5012 43.6632 41.6117 43.7295 41.6891C43.7406 41.7001 43.7461 41.7056 43.7571 41.7167L43.7627 41.7112Z" fill="#C33130"/>
<path d="M51.5157 38.5455C51.4936 40.0816 51.4715 41.6121 51.4494 43.1481C51.4494 43.2863 51.4383 43.441 51.3388 43.5404C51.2394 43.6399 51.0902 43.6454 50.9521 43.6454L49.6536 43.6675C49.5155 43.6675 49.3663 43.6675 49.2668 43.5736C49.1674 43.4797 49.1563 43.325 49.1508 43.1868C49.0845 40.9435 49.0127 38.7002 48.9464 36.4514C48.8635 33.7771 48.2999 30.053 51.9853 30.274C52.9909 30.3348 53.9965 30.473 54.9856 30.6829C55.3061 30.7492 55.6486 30.8376 55.8696 31.0808C56.1514 31.3846 56.168 31.8488 56.168 32.2632C56.168 33.5009 56.168 34.7441 56.168 35.9817C56.168 36.5122 56.168 37.0647 55.9525 37.5565C55.737 38.0482 55.2729 38.4682 54.7425 38.4461C55.4166 40.1479 56.0907 41.8552 56.7703 43.557C56.2012 43.5957 55.6321 43.6399 55.0574 43.6786C54.8198 43.6952 54.5601 43.7062 54.3557 43.5791C54.1513 43.4465 54.0573 43.2034 53.9744 42.9769C53.6153 41.9823 53.2561 40.9822 52.897 39.9876C52.6484 39.297 52.2561 38.4903 51.5212 38.4295V38.5566L51.5157 38.5455ZM51.8748 32.65C51.151 33.5285 51.3499 35.5508 51.593 36.479C51.6096 36.5453 51.6317 36.6227 51.6869 36.6669C51.7477 36.7166 51.8417 36.7221 51.919 36.7221C52.3776 36.7221 52.8362 36.7221 53.2948 36.7166C53.4109 36.7166 53.5379 36.7166 53.6319 36.6393C53.7645 36.5398 53.7755 36.3464 53.7755 36.1807C53.7755 35.1143 53.7866 34.0479 53.7921 32.976C53.7921 32.8047 53.7921 32.6168 53.6816 32.4897C53.6042 32.4013 53.4937 32.3516 53.3832 32.3184C52.6649 32.1029 52.1842 32.2742 51.8748 32.65Z" fill="#C33130"/>
<path d="M15.5943 56.7294C15.4949 56.8399 15.3236 56.8454 15.1689 56.8454C14.9589 56.8454 14.7545 56.8454 14.5445 56.8399C14.434 56.8399 14.3124 56.8344 14.2406 56.757C14.1688 56.6852 14.1633 56.5747 14.1577 56.4697C14.1191 55.1436 14.0804 53.823 14.0472 52.497C14.0251 51.7068 13.7323 45.3416 15.843 47.1981C16.2242 47.5352 16.3844 48.0546 16.5171 48.5463C16.9094 49.9442 17.2961 51.3366 17.6884 52.7345C18.2023 50.9996 18.7162 49.2646 19.2245 47.5352C19.2632 47.397 19.3129 47.2534 19.4179 47.165C19.545 47.06 19.7273 47.0545 19.8986 47.06C20.2301 47.06 20.5671 47.071 20.8987 47.0766C21.0092 47.0766 21.1363 47.0876 21.2136 47.1705C21.2799 47.2479 21.2854 47.3584 21.2854 47.4578C21.2854 50.4581 21.2854 53.4639 21.2854 56.4642C21.2854 56.5691 21.2854 56.6852 21.2136 56.757C21.1363 56.8399 21.0037 56.8509 20.8876 56.8509C20.639 56.8509 20.3903 56.8509 20.1417 56.8509C20.0312 56.8509 19.9096 56.8509 19.8268 56.7736C19.7383 56.6907 19.7328 56.5581 19.7328 56.4365C19.7218 54.359 19.7107 52.2815 19.6997 50.2039C19.3295 51.4858 18.9537 52.7732 18.5835 54.0551C18.5228 54.2706 18.4509 54.4971 18.2852 54.6518C17.9702 54.9447 17.4287 54.8342 17.1248 54.5248C16.821 54.2153 16.6939 53.7844 16.5834 53.3644C16.296 52.3146 16.0087 51.2593 15.7159 50.2095C15.6993 52.2759 15.6883 54.3424 15.6717 56.4034C15.6717 56.5084 15.6717 56.6189 15.6054 56.7073C15.5998 56.7128 15.5943 56.7239 15.5888 56.7294H15.5943Z" fill="#C33130"/>
<path d="M24.668 55.3978C24.668 55.3978 24.6846 55.4143 24.6901 55.4199C24.7675 55.4806 24.8725 55.4806 24.9719 55.4806C25.646 55.4696 26.3256 55.4585 26.9997 55.453C27.1102 55.453 27.2263 55.453 27.3312 55.4972C27.613 55.6243 27.6296 56.0166 27.5965 56.326C27.5799 56.4918 27.5523 56.6852 27.4086 56.7736C27.3202 56.8344 27.2042 56.8344 27.0937 56.8344C25.8007 56.8344 24.5078 56.8344 23.2149 56.8344C23.0933 56.8344 22.9496 56.8288 22.8723 56.7349C22.806 56.6576 22.8005 56.547 22.8005 56.4476C22.7894 54.0109 22.7728 51.5687 22.7618 49.132C22.7507 46.8279 24.4083 46.7008 26.403 46.9771C26.6848 47.0158 26.9776 47.06 27.2152 47.2092C27.4528 47.3584 27.6407 47.6457 27.5744 47.9219C27.4694 48.375 26.8726 48.4634 26.4085 48.4579C25.9278 48.4524 25.4526 48.4413 24.9719 48.4358C24.8559 48.4358 24.7233 48.4358 24.6459 48.5297C24.5907 48.6016 24.5851 48.6955 24.5851 48.7894C24.5851 49.3862 24.5796 49.9884 24.5741 50.5852C24.5741 50.7012 24.5741 50.8283 24.6238 50.9333C24.7564 51.2095 25.1432 51.2261 25.4526 51.1819C25.7897 51.1322 26.1378 51.0604 26.4693 51.1267C26.8008 51.193 27.1323 51.4527 27.1489 51.7952C27.16 52.1047 26.9113 52.3754 26.624 52.4859C26.3367 52.5964 26.0107 52.5743 25.7068 52.5467C25.4526 52.5191 25.1929 52.4914 24.9388 52.508C24.8283 52.5135 24.7067 52.5356 24.6459 52.624C24.5907 52.6959 24.5907 52.7953 24.5907 52.8893C24.5907 53.6186 24.5907 54.3424 24.5907 55.0718C24.5907 55.1878 24.5962 55.3204 24.6735 55.4033L24.668 55.3978Z" fill="#C33130"/>
<path d="M31.4033 47.3361C31.6741 47.0211 32.1106 46.8554 32.8344 46.9217C33.619 46.988 34.4036 47.0543 35.1882 47.1206C35.5032 47.1482 35.8457 47.1869 36.0612 47.4134C36.2104 47.5682 36.2767 47.7892 36.3264 47.9991C36.6303 49.281 36.553 50.6513 36.1109 51.889C36.5585 53.1432 36.6359 54.5301 36.3375 55.8286C36.2822 56.0662 36.2104 56.3148 36.0391 56.4916C35.7573 56.7845 35.3042 56.8066 34.9009 56.8066C33.6356 56.8121 32.3647 56.8176 31.0994 56.8287C31.0663 54.4417 31.0331 52.0492 31 49.6623C30.9889 48.734 30.9724 47.8444 31.4033 47.3416V47.3361ZM34.702 50.8281C34.702 50.8281 34.702 50.806 34.702 50.795C34.702 50.154 34.7075 49.5186 34.713 48.8777C34.713 48.7727 34.713 48.6677 34.6578 48.5793C34.597 48.4798 34.481 48.4246 34.3649 48.3914C32.6907 47.9163 32.6852 49.8943 32.851 50.9828C32.862 51.0657 32.8841 51.1541 32.9504 51.2094C33.0112 51.2536 33.0941 51.2591 33.1659 51.2536C33.5472 51.2536 33.9284 51.248 34.3097 51.2425C34.4036 51.2425 34.5031 51.2425 34.5804 51.1817C34.6854 51.1044 34.702 50.9607 34.702 50.8281ZM34.702 55.1158C34.702 54.392 34.702 53.6682 34.702 52.9499C34.702 52.8394 34.6965 52.7123 34.6136 52.6349C34.5362 52.5631 34.4202 52.5576 34.3207 52.5576C33.4201 52.5576 33.177 52.3697 32.8455 53.0493C32.757 53.2372 32.9173 55.5357 32.8455 55.5357H34.3152C34.4202 55.5302 34.5362 55.5247 34.6136 55.4528C34.6909 55.3755 34.6965 55.2539 34.6965 55.1379V55.1158H34.702Z" fill="#C33130"/>
<path d="M41.9892 56.6796C41.8677 56.5856 41.7682 56.4641 41.713 56.3204C41.5362 55.8397 41.829 55.1545 41.398 54.8783C41.2488 54.7843 41.061 54.7788 40.8842 54.7843C40.5637 54.7843 40.2432 54.7899 39.9283 54.7954C39.757 54.7954 39.5747 54.8009 39.4365 54.9059C39.0829 55.1711 39.3592 55.7402 39.2708 56.1767C39.1934 56.5469 38.8232 56.8011 38.4475 56.8674C38.0718 56.9337 37.6905 56.8453 37.3203 56.7624C37.696 54.6075 38.0883 52.4582 38.4972 50.3143C38.8398 48.491 38.8729 46.9218 41.1383 47.0378C41.293 47.0433 41.4643 47.0654 41.5748 47.1704C41.6632 47.2588 41.6964 47.3914 41.724 47.5185C42.365 50.5906 43.0114 53.6627 43.6524 56.7348C43.3043 56.8343 42.9396 56.9392 42.5805 56.9006C42.3705 56.8785 42.1605 56.8066 41.9948 56.6796H41.9892ZM39.641 53.4196C40.0554 53.4638 40.4753 53.4804 40.8897 53.4583C40.9615 53.4583 41.0444 53.4472 41.0941 53.3975C41.1549 53.3422 41.1604 53.2538 41.166 53.1765C41.2267 52.0272 41.1218 50.469 40.4477 49.5187C40.2874 49.8115 39.5139 53.403 39.6023 53.4141C39.6133 53.4141 39.6244 53.4141 39.6354 53.4141L39.641 53.4196Z" fill="#C33130"/>
<path d="M44.8847 47.3415C45.161 47.021 45.6196 46.8608 46.3655 46.916C47.1446 46.9713 47.9292 47.0486 48.7027 47.1426C49.0066 47.1812 49.3382 47.231 49.5536 47.452C49.7139 47.6177 49.7802 47.8498 49.8244 48.0763C50.0951 49.3417 50.0122 50.6788 49.5813 51.8999C50.0178 53.1431 50.1062 54.5079 49.8189 55.7898C49.7581 56.0715 49.6642 56.3699 49.4431 56.5578C49.1779 56.7843 48.8022 56.8009 48.4541 56.8009C47.2827 56.8175 46.1058 56.8285 44.9344 56.8451C44.835 56.8451 44.73 56.8451 44.6582 56.7788C44.5808 56.707 44.5753 56.5909 44.5753 56.4859C44.5421 54.1211 44.5035 51.7562 44.4703 49.3914C44.4593 48.5184 44.4979 47.7835 44.8847 47.3415ZM48.1502 50.8224C48.1723 50.5904 48.1889 50.3583 48.211 50.1263C48.2552 49.6013 48.2883 49.0212 47.9789 48.5957C46.791 46.9602 46.1997 50.1152 46.3103 50.8114C46.3324 50.933 46.36 51.0656 46.4484 51.1484C46.5699 51.2645 46.7523 51.2645 46.918 51.259C47.1943 51.2479 47.4706 51.2424 47.7468 51.2313C47.8518 51.2313 47.9679 51.2203 48.0452 51.1484C48.1281 51.0766 48.1447 50.9551 48.1502 50.8446V50.8224ZM48.1723 55.1101C48.1723 54.3974 48.1723 53.6846 48.1723 52.9718C48.1723 52.8724 48.1723 52.7619 48.1115 52.6845C48.0507 52.6071 47.9568 52.574 47.8629 52.5574C45.4262 52.0159 46.686 55.519 46.3103 55.519H47.7966C47.9016 55.5245 48.0121 55.519 48.0894 55.4527C48.1668 55.3753 48.1723 55.2538 48.1723 55.1488V55.1157V55.1101Z" fill="#C33130"/>
<path d="M54.6929 56.7236C54.2675 56.8396 53.8144 56.8838 53.3723 56.8507C53.2784 56.8451 53.1845 56.8286 53.1071 56.7733C52.9745 56.6738 52.969 56.4749 52.9745 56.3036C53.0242 54.5853 52.7259 52.8558 52.107 51.2479C51.7479 50.3252 51.2561 49.3914 51.129 48.3969C51.0296 47.6233 51.2893 46.0928 52.3225 47.2255C52.6043 47.5349 52.7204 47.9548 52.8309 48.3527C53.1513 49.524 53.4718 50.6899 53.7867 51.8613C54.1735 50.4191 54.5603 48.9825 54.9471 47.5404C54.9858 47.3968 55.03 47.2421 55.1515 47.1481C55.262 47.0597 55.4167 47.0431 55.5604 47.0376C55.9803 47.0266 56.4002 47.0652 56.8091 47.1536C56.4058 48.745 55.7648 50.27 55.2841 51.8447C54.8034 53.4194 54.4885 55.0825 54.7482 56.7015C54.7316 56.707 54.7095 56.7125 54.6929 56.7181V56.7236Z" fill="#C33130"/>
</g>
<defs>
<clipPath id="clip0_2485_86613">
<rect width="68.3901" height="138.885" fill="white" transform="translate(0.943359 0.673828)"/>
</clipPath>
</defs>
</svg>