<svg xmlns:xlink="http://www.w3.org/1999/xlink" xmlns="http://www.w3.org/2000/svg" width="24" height="24" viewBox="0 0 24 24" fill="none">
<path d="M19.8445 5.59412C19.8445 5.87889 19.76 6.15727 19.6018 6.39404C19.4436 6.63082 19.2187 6.81536 18.9557 6.92434C18.6926 7.03332 18.4031 7.06183 18.1238 7.00628C17.8445 6.95072 17.5879 6.81359 17.3866 6.61223C17.1852 6.41087 17.0481 6.15431 16.9925 5.87502C16.937 5.59572 16.9655 5.30622 17.0744 5.04312C17.1834 4.78003 17.368 4.55516 17.6047 4.39695C17.8415 4.23874 18.1199 4.1543 18.4047 4.1543C18.7865 4.1543 19.1528 4.30599 19.4228 4.57601C19.6928 4.84603 19.8445 5.21225 19.8445 5.59412Z" fill="#C33130"/>
<path d="M11.9987 15.999C11.2076 15.999 10.4342 15.7644 9.77645 15.3249C9.11865 14.8853 8.60596 14.2606 8.30321 13.5297C8.00046 12.7988 7.92124 11.9945 8.07559 11.2186C8.22993 10.4427 8.61089 9.72995 9.1703 9.17054C9.72971 8.61113 10.4424 8.23017 11.2184 8.07583C11.9943 7.92149 12.7986 8.0007 13.5295 8.30345C14.2604 8.6062 14.8851 9.11889 15.3246 9.77669C15.7641 10.4345 15.9987 11.2078 15.9987 11.999C15.9987 13.0598 15.5773 14.0773 14.8271 14.8274C14.077 15.5775 13.0596 15.999 11.9987 15.999ZM11.9987 5.83741C10.7801 5.83755 9.58897 6.19903 8.57581 6.87612C7.56266 7.55322 6.77304 8.51553 6.30677 9.64138C5.84051 10.7672 5.71855 12.0061 5.95632 13.2012C6.19409 14.3964 6.7809 15.4942 7.64257 16.3559C8.50424 17.2175 9.60206 17.8043 10.7972 18.0421C11.9924 18.2799 13.2312 18.1579 14.357 17.6917C15.4829 17.2254 16.4452 16.4358 17.1223 15.4226C17.7994 14.4095 18.1609 13.2183 18.161 11.9997C18.1612 11.1903 18.002 10.3889 17.6924 9.64105C17.3828 8.89323 16.9289 8.21373 16.3566 7.64135C15.7844 7.06898 15.105 6.61493 14.3573 6.30516C13.6095 5.99538 12.8081 5.83594 11.9987 5.83594V5.83741Z" fill="#C33130"/>
<path d="M12 0C8.7408 0 8.33266 0.013922 7.05257 0.0732735C6.05716 0.0931983 5.07233 0.28174 4.13995 0.630885C3.33943 0.932279 2.61427 1.40463 2.01502 2.01502C1.40444 2.61397 0.931834 3.33888 0.630152 4.13922C0.281244 5.07164 0.0929496 6.05647 0.0732735 7.05184C0.0146547 8.33193 0 8.73713 0 11.9993C0 15.2614 0.013922 15.6666 0.0732735 16.9467C0.0929496 17.9421 0.281244 18.9269 0.630152 19.8593C0.931546 20.6598 1.4039 21.385 2.01429 21.9842C2.61352 22.5947 3.33869 23.067 4.13922 23.3684C5.0716 23.7175 6.05643 23.9061 7.05184 23.926C8.33193 23.9846 8.73713 23.9993 11.9993 23.9993C15.2614 23.9993 15.6666 23.9853 16.9467 23.926C17.9421 23.9061 18.9269 23.7175 19.8593 23.3684C20.6565 23.0601 21.3806 22.5886 21.985 21.9842C22.5894 21.3798 23.0608 20.6558 23.3691 19.8586C23.7183 18.9262 23.9068 17.9414 23.9267 16.946C23.9853 15.6659 24 15.2607 24 11.9985C24 8.7364 23.9861 8.3312 23.9267 7.05111C23.9068 6.0557 23.7183 5.07087 23.3691 4.13849C23.0669 3.33769 22.5935 2.6125 21.982 2.01356C21.3828 1.40317 20.6576 0.930814 19.8571 0.629419C18.9257 0.2806 17.9418 0.0920631 16.9474 0.071808C15.6673 0.0131892 15.2585 0 12 0ZM12 2.1623C15.2043 2.1623 15.5838 2.17476 16.8492 2.23557C17.6102 2.24465 18.3639 2.38444 19.0775 2.64884C19.5983 2.84086 20.0695 3.14706 20.4565 3.54497C20.8547 3.93141 21.1614 4.4021 21.3541 4.92251C21.6185 5.63609 21.7583 6.38981 21.7674 7.15076C21.8252 8.41619 21.8406 8.79575 21.8406 11.9993C21.8406 15.2028 21.8282 15.5831 21.7674 16.8478C21.7583 17.6087 21.6185 18.3624 21.3541 19.076C21.1541 19.593 20.8482 20.0624 20.456 20.4541C20.0638 20.8458 19.594 21.1511 19.0768 21.3504C18.3632 21.6149 17.6095 21.7547 16.8485 21.7637C15.5831 21.8216 15.2035 21.837 11.9993 21.837C8.79502 21.837 8.41546 21.8245 7.15003 21.7637C6.38933 21.7546 5.63586 21.6148 4.92251 21.3504C4.40131 21.1581 3.92985 20.8514 3.54277 20.4528C3.14495 20.0675 2.83828 19.5981 2.64517 19.079C2.38074 18.3654 2.24095 17.6117 2.23191 16.8507C2.17402 15.5853 2.15864 15.2057 2.15864 12.0022C2.15864 8.79868 2.17109 8.41839 2.23191 7.15369C2.24061 6.39176 2.38041 5.63701 2.64517 4.92251C2.83782 4.4021 3.14452 3.93141 3.54277 3.54497C3.92964 3.14567 4.40112 2.83819 4.92251 2.64517C5.6361 2.38078 6.38982 2.24099 7.15076 2.23191C8.41619 2.17402 8.79282 2.1623 12 2.1623Z" fill="#C33130"/>
</svg>