<svg xmlns:xlink="http://www.w3.org/1999/xlink" xmlns="http://www.w3.org/2000/svg" width="270" height="64" viewBox="0 0 270 64" fill="none">
<g clip-path="url(#clip0_1122_21220)">
<path d="M11.1637 33.3934C11.1637 33.3934 11.1539 33.4032 11.149 33.408C13.8446 36.6392 16.5451 39.8703 19.2407 43.1014C21.8287 46.2054 24.309 50.3017 27.5525 52.8484C27.9048 51.294 27.5525 49.7004 27.8363 48.1606C28.2179 46.0978 27.7922 46.3862 30.3019 46.2249C33.9564 45.9952 37.7283 46.2103 41.3925 46.2005C43.5793 46.1956 45.7661 46.1858 47.9529 46.176C50.9861 46.1663 51.3432 46.572 51.5389 43.9763C52.1259 36.2823 51.8177 28.251 51.4508 20.5472C44.2446 20.6401 36.9259 21.3733 29.754 20.5472C27.0633 20.2392 27.6797 19.7846 27.6797 17.4334C27.6797 16.3189 27.7482 15.1311 27.577 14.0605C26.2023 16.7882 23.3991 18.6799 21.4275 21.0507C18.003 25.1617 14.5589 29.2677 11.1539 33.3934L11.1637 33.3934Z" stroke="white" stroke-width="2.33073" stroke-miterlimit="10"/>
<path d="M61.3502 21.8924C61.5937 21.5919 62.0091 21.4917 62.7395 21.5203C65.1027 21.5919 67.4659 21.6634 69.8434 21.7493C70.6598 21.7779 71.5334 21.8209 72.1493 22.3505C72.9084 23.0089 72.9943 24.1253 73.0086 25.1272C73.1232 30.0652 73.1519 35.0032 73.0086 39.9412C72.98 40.8286 72.9084 41.8019 72.3068 42.446C71.6194 43.176 70.5166 43.2332 69.514 43.2475C66.7068 43.2762 63.8996 43.3048 61.0924 43.3334C61.0781 36.6206 61.0781 29.8934 61.0781 23.1806C61.0781 22.5652 61.1497 22.1501 61.3502 21.8924ZM69.0557 39.4975C69.0843 34.9746 69.113 30.4373 69.1416 25.9144C69.1416 25.6282 69.1416 25.3419 69.0127 25.0843C68.7406 24.5404 68.0531 24.4115 67.4659 24.3257C66.6352 24.2112 65.6183 24.1968 65.1886 24.9268C65.0024 25.256 64.9881 25.6568 64.9881 26.0289C64.9881 28.6053 65.0024 31.1959 65.0168 33.7723C65.0168 34.7742 64.4868 40.4279 65.6326 40.4279C66.5063 40.4279 67.3943 40.4279 68.2679 40.4135C68.5114 40.4135 68.7979 40.3849 68.9411 40.1988C69.0414 40.07 69.0414 39.884 69.0414 39.7265L69.0414 39.5118L69.0557 39.4975Z" fill="white"/>
<path d="M79.8553 21.7494C80.1704 21.6921 80.4855 21.6492 80.8006 21.6206C82.4906 21.4774 84.2093 21.6206 85.8564 22.0356C86.4722 22.1931 87.1311 22.4221 87.4462 22.966C87.661 23.3381 87.6753 23.7818 87.6896 24.2112C87.8185 29.6788 87.9045 35.1464 87.6467 40.614C87.618 41.2724 87.5464 41.988 87.0738 42.4461C86.7873 42.718 86.4006 42.8325 86.0139 42.9327C83.5648 43.5482 81.0011 43.3621 78.4947 43.0472C77.9075 42.9756 77.2916 42.8754 76.8476 42.489C76.2318 41.9308 76.1745 41.0004 76.1745 40.156C76.1602 35.9336 76.1315 31.6969 76.1172 27.4746C76.1172 26.0576 76.1172 24.4402 77.0338 23.2666C77.7356 22.3648 78.7811 21.9498 79.8696 21.7494L79.8553 21.7494ZM83.8369 39.3687C83.8369 34.7599 83.8369 30.1511 83.8369 25.528C83.8369 25.3563 83.8369 25.1702 83.7367 25.0271C83.6507 24.8982 83.4932 24.841 83.35 24.7837C82.5479 24.4975 81.531 24.4545 80.729 24.7837C79.841 25.1559 79.9842 26.1578 79.9842 27.0166C80.0272 31.1817 80.0558 35.3611 80.0988 39.5262C80.0988 39.7266 80.0988 39.927 80.2277 40.0844C80.3852 40.2705 80.6717 40.2848 80.9152 40.2848C81.6313 40.2848 82.3617 40.2848 83.0779 40.2848C83.264 40.2848 83.4646 40.2848 83.6078 40.1703C83.8226 40.0128 83.8369 39.6979 83.8369 39.4403L83.8369 39.3687Z" fill="white"/>
<path d="M108.399 21.7066C108.556 21.5634 108.8 21.5634 109.015 21.5777C110.06 21.6493 111.091 21.7066 112.137 21.7781C110.92 28.7629 109.702 35.7477 108.485 42.7324C108.456 42.9185 108.413 43.1189 108.256 43.2191C108.141 43.305 107.983 43.305 107.855 43.305C106.537 43.305 105.234 43.305 103.916 43.305C103.773 43.305 103.601 43.305 103.486 43.2048C103.357 43.1046 103.314 42.9328 103.3 42.7611C102.498 37.9805 101.71 33.1999 100.908 28.4337C100.121 33.1856 99.3471 37.9519 98.5594 42.7038C98.5307 42.8899 98.4878 43.1046 98.3302 43.2191C98.2013 43.305 98.0438 43.305 97.8862 43.305C96.5829 43.305 95.2652 43.305 93.9619 43.305C93.8187 43.305 93.6611 43.305 93.5466 43.2048C93.4177 43.1046 93.389 42.9328 93.3604 42.7754C92.2432 36.3918 91.1261 29.9938 90.0089 23.6102C89.923 23.0949 89.7798 22.3077 90.1808 21.8783C90.6105 21.406 91.656 21.3201 92.2432 21.363C92.7159 21.3917 93.2172 21.5491 93.5179 21.9069C93.8044 22.2504 93.8617 22.7085 93.9189 23.1379C94.6064 28.3478 95.2939 33.5721 95.9814 38.782C96.9123 33.2286 97.8433 27.6751 98.7742 22.1073C98.8029 21.9642 98.8315 21.8067 98.9461 21.7066C99.0607 21.6207 99.2182 21.6064 99.3614 21.6064C100.393 21.6064 101.41 21.6064 102.441 21.6064C102.598 21.6064 102.756 21.6064 102.87 21.7066C102.985 21.8067 103.014 21.9642 103.042 22.1216C103.959 27.6751 104.89 33.2286 105.806 38.7677C106.609 33.2143 107.411 27.6751 108.213 22.1216C108.241 21.9642 108.256 21.8067 108.385 21.6779L108.399 21.7066Z" fill="white"/>
<path d="M122.994 21.9355C122.994 21.9355 123.123 21.8353 123.181 21.7923C123.696 21.4631 124.355 21.5633 124.957 21.6635C125.372 21.7351 125.845 21.8496 126.059 22.2074C126.188 22.4364 126.203 22.7084 126.203 22.9803C126.217 29.2351 126.231 35.5042 126.26 41.759C126.26 42.2314 126.231 42.7753 125.845 43.0615C125.601 43.2333 125.3 43.2619 125 43.2762C124.226 43.3192 123.353 43.3335 122.78 42.8039C122.45 42.5033 122.278 42.0596 122.121 41.6445C120.803 38.1092 119.485 34.5739 118.168 31.0242C117.996 34.7886 117.824 38.5529 117.652 42.3173C117.652 42.532 117.624 42.761 117.495 42.947C117.294 43.2333 116.893 43.2619 116.549 43.2762C115.762 43.2905 114.816 43.2333 114.43 42.5463C114.258 42.2457 114.243 41.8735 114.243 41.53C114.201 39.5262 114.172 37.5367 114.158 35.5329C114.129 32.6273 114.129 29.7218 114.358 26.8305C114.444 25.8286 115.031 19.5881 117.122 21.0767C117.538 21.3772 117.752 21.8782 117.924 22.3648C119.371 26.1435 120.817 29.9365 122.278 33.7151C122.321 30.4803 122.364 27.2456 122.393 24.0252C122.393 23.2952 122.465 22.4507 122.98 21.9641L122.994 21.9355Z" fill="white"/>
<path d="M133.491 40.1846L137.774 40.342C138.547 40.3707 139.091 40.113 139.163 40.9432C139.22 41.7018 139.077 42.5176 139.22 43.2619C138.418 43.3478 129.553 43.2619 129.553 43.2905L129.467 24.111C129.467 23.3524 129.524 22.5223 130.183 22.0499C130.842 21.5776 131.773 21.4202 132.56 21.5776C132.861 21.6348 133.176 21.7637 133.334 22.0213C133.463 22.2217 133.463 22.4793 133.463 22.7083C133.463 28.5337 133.477 34.3592 133.491 40.1846Z" fill="white"/>
<path d="M144.606 21.6492C145.164 21.5633 145.723 21.5347 146.224 21.5347C147.814 21.5347 149.418 21.7494 150.951 22.1788C151.466 22.3219 152.01 22.5223 152.297 22.966C152.555 23.3524 152.555 23.8391 152.555 24.2971C152.526 29.8935 152.512 35.4899 152.483 41.0863C152.483 41.4155 152.483 41.759 152.311 42.031C152.068 42.4461 151.567 42.6321 151.094 42.7466C148.53 43.4193 145.809 43.4909 143.202 42.9613C142.658 42.8468 142.099 42.7037 141.684 42.3315C140.982 41.7018 140.925 40.6426 140.911 39.7123C140.853 35.5758 140.796 31.425 140.739 27.2885C140.724 25.8429 140.739 24.111 141.756 22.966C142.443 22.1788 143.517 21.8209 144.577 21.6492L144.606 21.6492ZM148.587 39.3687C148.587 36.7351 148.587 34.0872 148.587 31.4536C148.587 30.1511 148.587 28.8343 148.587 27.5318C148.587 26.6587 148.931 25.1845 147.943 24.7122C147.456 24.4832 146.897 24.5261 146.367 24.5547C145.852 24.5977 145.265 24.6692 144.993 25.1129C144.821 25.3849 144.806 25.7284 144.806 26.0576C144.806 28.4049 144.806 30.7666 144.806 33.1139C144.806 34.2876 144.806 35.4613 144.806 36.6493C144.806 37.5939 144.334 39.3974 145.136 40.0987C145.766 40.6569 147.084 40.342 147.828 40.2705C148.344 40.2275 148.573 40.0128 148.573 39.4832L148.573 39.3687L148.587 39.3687Z" fill="white"/>
<path d="M164.701 43.1475C164.572 43.0043 164.543 42.804 164.5 42.6179C164.371 41.845 164.257 41.0578 164.128 40.2849C164.056 39.8698 163.97 39.4118 163.655 39.1255C163.412 38.9108 163.068 38.8392 162.739 38.782C161.922 38.6389 161.077 38.5387 160.275 38.739C159.473 38.9394 158.728 39.5263 158.542 40.3421C158.442 40.8144 158.542 41.3154 158.542 41.7877C158.542 42.2601 158.456 42.8183 158.07 43.1045C157.726 43.3622 157.267 43.3622 156.838 43.3335C156.136 43.2906 155.434 43.2047 154.732 43.0902C155.52 38.2953 156.294 33.4862 157.081 28.6913C157.482 26.2581 157.683 21.7781 160.848 21.4489C161.65 21.363 162.466 21.5347 163.269 21.7065C163.526 21.7638 163.784 21.8353 163.97 22.0214C164.142 22.1931 164.199 22.4508 164.242 22.6941C165.603 29.0777 166.978 35.4614 168.339 41.8307C168.41 42.2028 168.482 42.6179 168.238 42.9042C168.024 43.1618 167.651 43.1904 167.322 43.219C166.692 43.2477 166.076 43.2906 165.446 43.3192C165.173 43.3335 164.844 43.3335 164.658 43.1332L164.701 43.1475ZM159.688 35.7619C159.688 35.7619 159.831 35.8049 159.903 35.8049C160.991 35.8335 162.094 35.8335 163.183 35.7906C162.91 33.2571 162.524 30.738 162.023 28.2476C161.937 27.8182 161.908 26.9308 161.593 26.6159C160.805 25.843 160.361 30.2228 160.304 30.5949C160.06 32.198 159.817 33.801 159.588 35.4041C159.573 35.5186 159.559 35.6474 159.645 35.7333C159.659 35.7476 159.674 35.7619 159.688 35.7762L159.688 35.7619Z" fill="white"/>
<path d="M171.289 22.2073C171.676 21.7923 172.263 21.5632 173.151 21.5489C175.557 21.4917 177.963 21.6348 180.341 21.964C180.871 22.0356 181.444 22.1358 181.845 22.5079C182.375 22.9802 182.475 23.7531 182.532 24.4688C182.99 30.0223 182.976 35.6187 182.489 41.1578C182.446 41.6158 182.389 42.1025 182.088 42.446C181.716 42.8754 181.086 42.947 180.513 42.9756C177.591 43.1617 174.655 43.3191 171.719 43.4193C171.389 43.4193 171.017 43.4193 170.831 43.1473C170.73 42.9899 170.73 42.7895 170.716 42.6034C170.688 36.5776 170.659 30.5518 170.645 24.5117C170.645 23.4812 170.788 22.694 171.26 22.193L171.289 22.2073ZM178.722 39.4832C178.722 34.8744 178.722 30.2513 178.722 25.6425C178.722 25.3991 178.722 25.1558 178.593 24.9411C178.436 24.6835 178.121 24.5547 177.82 24.4974C176.789 24.2684 174.927 24.1968 174.698 25.4135C174.397 26.9593 174.669 28.8343 174.669 30.4087C174.669 33.7437 174.669 37.0643 174.683 40.3992L177.978 40.3992C178.221 40.3992 178.493 40.3706 178.622 40.1845C178.708 40.0557 178.722 39.8983 178.722 39.7408L178.722 39.4975L178.722 39.4832Z" fill="white"/>
<path d="M200.176 22.0214C200.348 21.864 200.606 21.821 200.835 21.7924C201.78 21.6779 202.955 21.6922 203.385 22.551C203.542 22.8802 203.542 23.2666 203.542 23.6245C203.471 29.9079 203.399 36.1913 203.327 42.4748C203.327 42.6465 203.327 42.8469 203.198 42.9757C203.069 43.1189 202.869 43.1475 202.683 43.1618C202.124 43.2191 201.58 43.2763 201.021 43.3336C200.706 43.3622 200.363 43.3908 200.09 43.2477C199.761 43.0616 199.603 42.6752 199.475 42.303L195.264 30.1369L194.963 41.5874C194.963 42.0454 194.934 42.532 194.662 42.9185C194.089 43.763 192.657 43.5053 192.041 42.6895C191.425 41.8736 191.397 40.7715 191.382 39.741C191.354 37.5797 191.339 35.4184 191.311 33.2572C191.296 31.8115 191.182 19.4307 194.118 21.1913C194.591 21.4775 194.863 22.0071 195.092 22.5224C196.854 26.4298 198.357 30.4518 199.575 34.5597C199.718 30.5806 199.847 26.6159 199.99 22.6369C199.99 22.4365 200.004 22.2361 200.119 22.0787C200.133 22.05 200.162 22.0357 200.176 22.0214Z" fill="white"/>
<path d="M210.403 21.7492C210.776 21.6491 211.177 21.5775 211.607 21.5489C213.182 21.42 214.772 21.7492 216.319 22.0785C216.791 22.1786 217.293 22.2931 217.636 22.6223C218.123 23.0947 218.166 23.839 218.181 24.5117C218.281 29.4354 218.381 34.3591 218.481 39.2971C218.496 40.3419 218.481 41.487 217.794 42.2599C217.335 42.7751 216.648 43.0185 215.975 43.1902C213.784 43.7627 211.449 43.7914 209.243 43.2332C208.556 43.0614 207.84 42.8181 207.338 42.3028C206.637 41.5872 206.479 40.3849 206.465 39.3973C206.422 37.3219 206.665 35.2608 206.608 33.1997C206.565 31.568 206.336 29.9363 206.35 28.3046C206.379 25.1987 207.51 22.5365 210.403 21.7636L210.403 21.7492ZM214.471 39.3973C214.543 39.0824 214.557 38.7389 214.557 38.4097C214.5 34.2302 214.442 30.0508 214.385 25.8714C214.385 25.6138 214.385 25.3418 214.242 25.1128C214.07 24.8122 213.726 24.6548 213.383 24.5832C209.945 23.8676 210.446 28.2188 210.547 30.3228C210.661 32.5842 210.604 34.86 210.403 37.1215C210.318 38.0089 210.246 39.0108 210.819 39.6835C211.349 40.299 212.251 40.4421 213.053 40.3992C213.383 40.3849 213.741 40.3419 214.013 40.1415C214.256 39.9698 214.399 39.6978 214.471 39.4116L214.471 39.3973Z" fill="white"/>
<path d="M239.249 22.0213C239.951 21.3343 241.226 21.1482 241.784 21.9355C242.157 22.4507 242.071 23.1521 241.985 23.7818C241.168 29.4641 240.352 35.1464 239.521 40.8144C239.45 41.344 239.364 41.9022 239.063 42.3459C238.39 43.4051 236.915 43.5196 235.654 43.5196C235.167 43.5196 234.637 43.5052 234.308 43.1474C234.079 42.9041 234.007 42.5606 233.936 42.2314C233.091 38.009 232.246 33.7867 231.401 29.5786C230.599 33.9012 229.782 38.2094 228.98 42.532C228.937 42.761 228.88 43.0186 228.694 43.1617C228.522 43.2905 228.307 43.2905 228.106 43.2905C226.918 43.2905 225.729 43.2762 224.555 43.2619C224.34 43.2619 224.111 43.2619 223.939 43.1331C223.695 42.9613 223.624 42.6465 223.581 42.3602C222.693 36.8497 221.819 31.3391 220.931 25.8429C220.745 24.6693 220.444 20.4898 222.922 21.6492C223.552 21.9498 223.939 22.5939 224.211 23.2236C226.116 27.6464 224.426 33.0853 226.588 37.3936C227.491 32.4269 228.393 27.446 229.31 22.4794C229.353 22.236 229.41 21.9784 229.596 21.821C229.768 21.6778 230.011 21.6635 230.24 21.6635C230.985 21.6492 231.716 21.6349 232.46 21.6206C232.69 21.6206 232.947 21.6206 233.134 21.7637C233.305 21.9068 233.363 22.1502 233.406 22.3792C234.337 27.3887 235.268 32.384 236.199 37.3936C237.416 33.4718 238.132 29.3926 238.333 25.2847C238.39 24.2255 238.433 23.0805 239.063 22.2217C239.12 22.1502 239.178 22.0786 239.249 22.007L239.249 22.0213Z" fill="white"/>
<path d="M248.519 15.9032C248.588 15.1699 249.719 14.6391 250.137 14.3039C251.072 13.5565 256.723 7.90635 257.609 9.05874C257.951 9.49874 257.944 10.2111 257.595 10.6441C255.363 13.4238 252.628 15.6099 249.691 16.9578C249.174 17.1953 248.553 16.7274 248.512 16.022C248.512 15.9801 248.512 15.9451 248.512 15.9032" fill="white"/>
<path d="M251.281 31.3662C251.281 30.7655 251.658 30.2697 252.125 30.2487C255.3 30.102 258.516 29.8716 261.684 29.5573C262.165 29.5084 262.591 29.9693 262.625 30.5839C262.765 32.8957 253.353 32.4278 252.188 32.4836C251.7 32.5046 251.295 32.0227 251.274 31.4081C251.274 31.3941 251.274 31.3801 251.274 31.3662" fill="white"/>
<path d="M247.709 44.4404C247.709 42.1287 249.614 44.3357 250.123 44.9852C252.027 47.4017 253.841 49.9509 255.704 52.4233C256.569 53.5757 256.388 56.4462 255.069 54.8259C252.579 51.7598 250.172 48.5122 247.911 45.1738C247.772 44.9642 247.702 44.7058 247.702 44.4474" fill="white"/>
</g>
<defs>
<clipPath id="clip0_1122_21220">
<rect width="64" height="270" fill="white" transform="translate(270) rotate(90)"/>
</clipPath>
</defs>
</svg>