<svg xmlns:xlink="http://www.w3.org/1999/xlink" xmlns="http://www.w3.org/2000/svg" width="24" height="24" viewBox="0 0 24 24" fill="none">
<path d="M19.2744 4.8106C18.0198 3.96779 17.115 2.61871 16.8323 1.04688C16.7715 0.707352 16.7376 0.357589 16.7376 0H12.7342L12.7277 16.5358C12.6606 18.3875 11.1816 19.8739 9.36911 19.8739C8.80545 19.8739 8.27507 19.7288 7.80779 19.4754C6.73653 18.8944 6.00348 17.7374 6.00348 16.4057C6.00348 14.4932 7.5134 12.937 9.36853 12.937C9.7149 12.937 10.0473 12.996 10.3615 13.0971V8.88494C10.0362 8.83919 9.70556 8.8109 9.36853 8.8109C5.30547 8.8109 2 12.2176 2 16.4057C2 18.9751 3.24532 21.2489 5.14601 22.6238C6.34285 23.4901 7.79903 24 9.36911 24C13.4322 24 16.7376 20.5933 16.7376 16.4057V8.02047C18.3077 9.18173 20.2318 9.8662 22.3077 9.8662V5.74009C21.1897 5.74009 20.1482 5.39755 19.2744 4.8106Z" fill="#C33130"/>
</svg>